<?xml version='1.0' encoding='utf-8'?>
<svg xmlns="http://www.w3.org/2000/svg" viewBox="0 0 129.1 130.2" role="img">
<defs>
  <linearGradient id="gold" x1="100%" y1="0%" x2="0%" y2="100%">
    <stop offset="0" stop-color="#D8BE6A" />
    <stop offset="1" stop-color="#A97924" />
  </linearGradient>
</defs>
<g fill="url(#gold)">
  <path d="M124.7,72.9c-0.8,0.3-1.6,0.8-2.1,1.6c-0.1,0.2-0.2,0.3-0.3,0.5c0.2-1.6,0.4-3.2,0.6-4.8v0   c1,0.2,3.1,0.5,4.9-1.7c0.6-1.1,0.8-1.8,0.8-2.5c0-0.7,0-1.2,0.5-1.8c-0.6,0-2.5,0.4-4,1.3c-0.8,0.4-1.5,1-1.9,1.8   c-0.1,0.1-0.1,0.2-0.2,0.4c0.1-1.6,0-3.2-0.1-4.8c0.5,0,1.2,0,2.1-0.2s1.8-0.8,2.5-2c0.9-2.2-0.1-3,0.7-4.3   c-0.6,0.1-2.3,0.7-3.8,1.8c-0.7,0.5-1.3,1.2-1.7,2c-0.1,0.1-0.1,0.3-0.1,0.5c-0.2-1.6-0.4-3.2-0.7-4.8c0.9-0.1,3-0.3,4.2-2.8   c0.6-2.3-0.5-2.9,0.2-4.3c-0.6,0.2-2.2,1-3.5,2.2c-0.8,0.7-1.3,1.6-1.4,2.6c-0.4-1.6-0.8-3.2-1.3-4.8c0,0,0,0,0,0   c0.9-0.2,2.9-0.6,3.8-3.2c0.4-2.3-0.8-2.7-0.3-4.2c-0.5,0.2-2.1,1.2-3.1,2.5c-0.6,0.8-1.1,1.7-1.1,2.7c-0.4-1-0.8-2-1.2-2.9   c-0.2-0.6-0.5-1.1-0.8-1.7c0,0,0,0,0,0c0.8-0.3,2.8-1,3.2-3.5c0.1-2.3-1.1-2.6-0.8-4c-0.5,0.3-1.8,1.4-2.7,2.8   c-0.5,0.8-0.9,1.8-0.8,2.7c-0.8-1.5-1.6-2.9-2.5-4.3c0.8-0.4,2.5-1.3,2.8-3.9c-0.2-2.2-1.4-2.3-1.3-3.8c-0.4,0.3-1.7,1.6-2.3,3.1   c-0.4,0.9-0.6,1.8-0.4,2.8c-1-1.4-2-2.8-3-4.1c0.7-0.5,2.3-1.5,2.2-4.1c-0.2-1.1-0.6-1.6-0.9-2.1c-0.4-0.4-0.7-0.8-0.7-1.5   c-0.4,0.4-1.4,1.7-1.9,3.2c-0.3,0.9-0.4,1.8-0.1,2.7c-1.1-1.3-2.3-2.5-3.5-3.6c0.3-0.3,0.8-0.7,1.2-1.4c0.4-0.7,0.7-1.6,0.4-2.8   c-0.7-2-1.8-1.9-2-3.2c-0.3,0.4-1.2,1.9-1.5,3.4c-0.2,0.8-0.2,1.6,0.1,2.3c0,0.1,0.1,0.2,0.2,0.3c-1.3-1.1-2.6-2.2-3.9-3.2   c0.6-0.6,1.7-2,1.1-4.3c-0.2-0.5-0.4-0.8-0.7-1.1c-0.2-0.3-0.5-0.4-0.7-0.6c-0.4-0.3-0.8-0.6-1-1.2c-0.3,0.4-0.9,1.9-1,3.4   c-0.1,0.8,0.1,1.5,0.4,2.2c0.1,0.1,0.1,0.2,0.2,0.3c-1.1-0.8-2.2-1.5-3.3-2.1c0.1-0.9,0-2.3-1.7-3.2c-1.9-0.6-2.6,0.4-3.6-0.2   c0,0.5,0.3,2,1.1,3c0.7,1,1.9,1.6,3.9,0.8c0.4,0.3,0.9,0.5,1.3,0.8c-0.8-0.1-1.6,0.2-2.2,0.6c-1.3,0.8-2.2,2.1-2.5,2.5   c1.2-0.3,1.3,0.7,3.2,0.7c1.1-0.2,1.9-0.7,2.5-1.2c0.5-0.5,0.8-1,1-1.3c1.3,0.9,2.6,1.9,3.9,2.9c-0.8-0.2-1.6,0-2.3,0.3   c-1.4,0.7-2.5,1.9-2.9,2.3c1.2-0.2,1.3,0.8,3.1,1c2.2-0.1,3.4-1.4,3.9-2.1c1.2,1.1,2.3,2.2,3.5,3.4c-0.1,0-0.1,0-0.2-0.1   c-0.7-0.2-1.5-0.1-2.3,0.1c-1.5,0.5-2.8,1.5-3.2,1.9c1.3,0,1.1,1,3,1.4c2.2,0.2,3.6-1,4.2-1.6c1.1,1.2,2.1,2.4,3,3.7   c-0.7-0.4-1.6-0.5-2.4-0.3c-1.6,0.3-3,1.3-3.5,1.6c1.4,0.1,1,1.1,2.9,1.8c2.2,0.4,3.8-0.5,4.4-1.2c0.9,1.3,1.7,2.6,2.5,4   c0,0-0.1-0.1-0.1-0.1c-0.7-0.4-1.5-0.5-2.3-0.4c-1.6,0.1-3.2,0.9-3.7,1.2c0.7,0.1,0.9,0.5,1.2,0.8c0.3,0.4,0.7,0.8,1.5,1.3   c2.2,0.8,3.9-0.1,4.6-0.6c0.6,1.2,1.2,2.4,1.7,3.6c0.1,0.2,0.2,0.4,0.3,0.6c-0.1,0-0.1-0.1-0.2-0.1c-0.7-0.5-1.5-0.7-2.3-0.8   c-1.7-0.1-3.3,0.5-3.9,0.7c1.3,0.4,0.7,1.4,2.5,2.5c2.2,1,3.9,0.4,4.8,0c0.5,1.5,1,2.9,1.4,4.4c-0.6-0.7-1.4-1.1-2.3-1.2   c-1.7-0.3-3.5,0.1-4.1,0.3c0.6,0.3,0.8,0.7,1,1.1c0.2,0.5,0.4,1,1.2,1.7c2.1,1.3,3.9,0.9,4.9,0.5c0.3,1.5,0.6,3,0.9,4.5   c0-0.1-0.1-0.1-0.1-0.2c-0.5-0.7-1.3-1.1-2.2-1.3c-1.7-0.5-3.5-0.3-4.1-0.2c0.6,0.4,0.7,0.8,0.8,1.3c0.2,0.5,0.3,1.1,1,1.9   c1.9,1.6,3.9,1.4,4.9,1.2c0,0.3,0.1,0.5,0.1,0.8c0.1,1.2,0.2,2.5,0.2,3.8c0-0.1-0.1-0.2-0.1-0.3c-0.4-0.7-1.2-1.3-2-1.6   c-1.6-0.7-3.5-0.8-4.1-0.8c1.1,0.9,0.2,1.7,1.4,3.4c1.7,1.8,3.8,1.9,4.8,1.8c-0.1,1.5-0.2,3-0.3,4.5c-0.3-0.9-1-1.7-1.8-2.2   c-1.6-0.9-3.5-1.3-4.1-1.3c1.1,1.1,0,1.7,1,3.7c0.8,1.1,1.7,1.7,2.5,2.1c0.8,0.3,1.5,0.4,2,0.4c-0.2,1.5-0.5,2.9-0.9,4.4   c-0.2-1-0.8-1.8-1.6-2.4c-1.4-1.1-3.3-1.7-4-1.8c0.9,1.2-0.2,1.8,0.6,3.8c1.3,2.3,3.3,2.9,4.4,3c-0.4,1.4-0.8,2.8-1.3,4.2   c0-0.1,0-0.2,0-0.3c-0.2-0.9-0.7-1.7-1.4-2.4c-1.3-1.3-3.2-2.1-3.8-2.3c0.4,0.7,0.3,1.1,0.1,1.6c-0.1,0.6-0.2,1.2,0,2.3   c1,2.5,3,3.3,4,3.6c-0.6,1.4-1.2,2.7-1.8,4c0.1-1.1-0.4-2.1-1.1-2.9c-1.2-1.5-2.9-2.5-3.5-2.8c0.6,1.4-0.7,1.7-0.3,4   c0.7,2.6,2.6,3.7,3.7,4.1c-0.3,0.5-0.6,1-0.8,1.5c-0.5,0.8-1,1.5-1.5,2.3c0-0.1,0-0.3,0.1-0.4c0.1-0.9-0.2-1.9-0.8-2.7   c-1-1.6-2.7-2.9-3.3-3.2c0.2,0.8,0,1.2-0.2,1.7c-0.3,0.5-0.6,1.1-0.6,2.3c0.4,2.8,2.2,4.1,3.2,4.6c-0.9,1.2-1.8,2.3-2.7,3.4   c0-0.1,0.1-0.2,0.1-0.4c0.2-0.9,0-1.9-0.4-2.8c-0.8-1.8-2.4-3.3-2.9-3.7c0.1,0.8-0.1,1.2-0.4,1.7c-0.3,0.5-0.7,1-0.9,2.2   c0.1,1.5,0.5,2.6,1,3.4c0.5,0.8,1.1,1.3,1.6,1.7c-1,1-2,2-3.1,3c0.5-1,0.4-2.1,0.1-3.2c-0.6-1.9-2-3.6-2.4-4.1   c0.1,1.6-1.2,1.4-1.8,3.7c-0.3,2.8,1.1,4.7,2,5.5c-1.1,0.9-2.2,1.7-3.4,2.5c0.1-0.1,0.1-0.2,0.2-0.3c0.4-0.9,0.5-1.9,0.3-2.9   c-0.3-2-1.5-3.9-1.9-4.4c-0.1,0.8-0.4,1.1-0.9,1.5s-0.9,0.9-1.4,2c-0.7,2.8,0.5,4.9,1.2,5.8c-0.2,0.1-0.3,0.2-0.5,0.3   c-1.1,0.6-2.1,1.2-3.2,1.7c0.8-0.9,1-2.1,1-3.2c-0.1-2-1-4.1-1.3-4.7c-0.4,1.6-1.6,1-2.8,3.2c-1.1,2.7-0.2,5,0.4,6   c-0.8,0.3-1.6,0.7-2.4,1c-0.5,0.2-1,0.4-1.5,0.6c0.9-0.8,1.3-2,1.4-3.2c0.2-2.1-0.4-4.3-0.7-5c-0.5,1.6-1.8,0.9-3.4,3   c-1.4,2.7-0.7,5.1-0.2,6.1c-1.3,0.4-2.7,0.8-4,1.1c1-0.7,1.5-1.9,1.8-3.1c0.4-2.1,0-4.4-0.2-5.1c-0.8,1.6-1.9,0.7-3.6,2.6   c-1.7,2.5-1.3,5-0.9,6.2c-2.2,0.4-4.4,0.6-6.6,0.8c-1.5,0.1-2.6,0.5-3.6,1c-1-0.5-2.1-0.9-3.6-1c-2.2-0.1-4.4-0.4-6.6-0.8   c0.4-1.2,0.8-3.6-0.9-6.2c-1.7-1.9-2.8-1-3.6-2.6c-0.2,0.7-0.6,3-0.2,5.1c0.2,1.2,0.8,2.3,1.8,3.1c-1.3-0.3-2.7-0.7-4-1.1   c0.5-1.1,1.3-3.4-0.2-6.1c-1.6-2.1-2.8-1.4-3.4-3c-0.3,0.7-0.9,2.9-0.7,5c0.1,1.2,0.5,2.4,1.4,3.2c-0.5-0.2-1-0.4-1.5-0.6   c-0.8-0.3-1.6-0.6-2.4-1c0.6-1,1.5-3.3,0.5-6c-1.2-2.2-2.4-1.6-2.8-3.2c-0.4,0.6-1.3,2.7-1.3,4.7c0,1.1,0.2,2.3,1,3.2   c-1.1-0.6-2.2-1.1-3.2-1.7c-0.2-0.1-0.3-0.2-0.5-0.3c0.7-0.9,1.9-3,1.2-5.8c-0.5-1.1-1-1.6-1.4-2c-0.4-0.4-0.8-0.7-0.9-1.5   c-0.4,0.6-1.6,2.4-1.9,4.4c-0.2,1-0.1,2,0.3,2.9c0,0.1,0.1,0.2,0.2,0.3c-1.2-0.8-2.3-1.6-3.4-2.5c0.8-0.8,2.2-2.6,2-5.5   c-0.6-2.3-1.9-2.1-1.8-3.7c-0.5,0.5-1.9,2.2-2.5,4.1c-0.4,1.1-0.4,2.2,0.1,3.2C25,109,24,108,23,107c0.4-0.3,1.1-0.9,1.6-1.7   c0.5-0.8,1-1.9,1-3.4c-0.1-1.2-0.5-1.8-0.9-2.2c-0.3-0.5-0.6-0.9-0.4-1.7c-0.5,0.4-2.1,1.9-2.9,3.7c-0.4,0.9-0.6,1.9-0.4,2.8   c0,0.1,0.1,0.2,0.1,0.4c-1-1.1-1.9-2.2-2.7-3.4c1-0.5,2.8-1.9,3.2-4.6c0-1.2-0.3-1.8-0.6-2.3c-0.3-0.5-0.5-0.9-0.2-1.7   c-0.6,0.3-2.3,1.6-3.3,3.2c-0.5,0.8-0.8,1.7-0.8,2.7c0,0.1,0,0.3,0,0.4c-0.5-0.8-1-1.5-1.5-2.3c-0.3-0.5-0.6-1-0.9-1.5   c1-0.4,2.9-1.5,3.7-4.1c0.3-2.3-0.9-2.6-0.3-4c-0.6,0.3-2.4,1.3-3.5,2.8C13.5,90.9,13,92,13.1,93c-0.7-1.3-1.3-2.7-1.8-4   c1-0.3,3-1.1,4-3.6c0.2-1.1,0.1-1.8,0-2.3c-0.1-0.5-0.2-1,0.1-1.6c-0.6,0.2-2.5,1-3.8,2.3c-0.7,0.7-1.2,1.4-1.4,2.4   c0,0.1,0,0.2,0,0.3c-0.5-1.4-0.9-2.8-1.3-4.2c1-0.2,3.1-0.7,4.4-3c0.7-2.1-0.3-2.6,0.6-3.8c-0.6,0.1-2.5,0.7-4,1.8   c-0.8,0.6-1.4,1.4-1.6,2.4c-0.3-1.4-0.6-2.9-0.9-4.4c0.5,0,1.2-0.1,2-0.4c0.8-0.3,1.7-1,2.5-2.1c1-2-0.1-2.6,1-3.7   c-0.6,0.1-2.6,0.4-4.1,1.3C8,70.8,7.3,71.6,7,72.5c-0.2-1.5-0.3-3-0.3-4.5c1,0.1,3.1,0,4.7-1.8c1.3-1.8,0.4-2.5,1.4-3.4   c-0.6,0-2.5,0-4.1,0.8c-0.8,0.4-1.5,0.9-2,1.6c-0.1,0.1-0.1,0.2-0.1,0.3c0-1.3,0.1-2.5,0.2-3.8c0-0.3,0.1-0.5,0.1-0.8   c1,0.2,3,0.4,4.9-1.2c0.7-0.8,0.9-1.4,1-1.9c0.1-0.5,0.2-0.9,0.8-1.3c-0.6-0.1-2.4-0.3-4.1,0.2c-0.8,0.2-1.6,0.7-2.2,1.3   c0,0.1-0.1,0.1-0.1,0.2c0.2-1.5,0.5-3,0.9-4.5C9.1,54,11,54.4,13,53.1c0.8-0.7,1-1.2,1.2-1.7c0.2-0.5,0.4-0.8,1-1.1   c-0.6-0.2-2.4-0.6-4.1-0.3c-0.9,0.2-1.8,0.5-2.3,1.2c0.4-1.5,0.9-3,1.4-4.4c0.9,0.5,2.6,1.1,4.8,0c1.7-1.1,1.2-2.1,2.5-2.5   c-0.5-0.2-2.2-0.8-3.9-0.7c-0.8,0-1.6,0.3-2.3,0.8c-0.1,0-0.1,0.1-0.1,0.1c0.1-0.2,0.2-0.4,0.3-0.6c0.5-1.2,1.1-2.4,1.7-3.6   c0.8,0.5,2.4,1.4,4.6,0.6c0.9-0.5,1.2-0.9,1.5-1.3s0.5-0.7,1.2-0.8c-0.5-0.3-2.1-1.1-3.7-1.2c-0.8-0.1-1.6,0-2.4,0.4   c0,0-0.1,0.1-0.1,0.1c0.8-1.3,1.6-2.7,2.5-4c0.7,0.6,2.2,1.6,4.5,1.2c1.9-0.7,1.5-1.8,2.9-1.8c-0.4-0.3-1.9-1.3-3.5-1.6   c-0.8-0.2-1.7-0.1-2.5,0.3c1-1.3,2-2.5,3-3.7c0.6,0.7,2,1.8,4.2,1.6c1.9-0.4,1.8-1.5,3-1.4c-0.4-0.4-1.7-1.5-3.2-1.9   c-0.7-0.2-1.5-0.3-2.3-0.1c0,0-0.1,0-0.2,0.1c1.1-1.2,2.3-2.3,3.5-3.4c0.5,0.7,1.7,2,3.9,2.1c1.8-0.3,1.9-1.2,3.1-1   c-0.3-0.4-1.5-1.6-2.9-2.3c-0.8-0.4-1.6-0.5-2.3-0.3c1.2-1,2.5-2,3.9-2.9c0.2,0.4,0.5,0.9,1,1.3c0.6,0.5,1.3,1,2.5,1.2   c1.9,0,2-1,3.2-0.7c-0.3-0.4-1.2-1.7-2.5-2.5c-0.7-0.4-1.4-0.7-2.2-0.6c0.4-0.3,0.9-0.5,1.3-0.8c2,0.7,3.1,0.1,3.9-0.9   c0.7-1.1,1-2.5,1-3c-1,0.6-1.7-0.3-3.6,0.2c-1.7,0.8-1.8,2.3-1.7,3.2c-1.1,0.7-2.2,1.4-3.3,2.1c0.1-0.1,0.1-0.2,0.2-0.3   c0.3-0.7,0.4-1.4,0.4-2.2c-0.1-1.5-0.8-3-1-3.4c-0.2,0.6-0.5,0.9-1,1.2c-0.2,0.2-0.5,0.3-0.7,0.6c-0.2,0.3-0.5,0.6-0.7,1.1   c-0.6,2.3,0.5,3.7,1.1,4.3c-1.4,1-2.7,2.1-3.9,3.2c0.1-0.1,0.1-0.2,0.2-0.3c0.3-0.7,0.2-1.5,0.1-2.3c-0.3-1.5-1.1-3-1.5-3.4   c-0.2,1.4-1.3,1.2-2,3.2c-0.2,1.2,0.1,2.1,0.5,2.8c0.4,0.7,0.9,1.1,1.2,1.4c-1.2,1.2-2.4,2.4-3.5,3.6c0.3-0.9,0.2-1.8-0.1-2.7   c-0.5-1.5-1.5-2.9-1.9-3.2c0,0.7-0.3,1-0.7,1.5c-0.4,0.4-0.7,1-1,2.1c-0.1,2.5,1.5,3.6,2.2,4.1c-1.1,1.3-2.1,2.7-3,4.1   c0.2-0.9,0.1-1.9-0.4-2.8c-0.7-1.5-1.9-2.7-2.3-3.1c0.1,1.5-1.1,1.6-1.3,3.8c0.3,2.6,1.9,3.5,2.8,3.9c-0.9,1.4-1.7,2.8-2.5,4.3   c0.1-1-0.2-1.9-0.8-2.7c-0.9-1.4-2.2-2.5-2.7-2.8c0.3,1.4-0.9,1.8-0.8,4c0.5,2.6,2.4,3.3,3.2,3.5c0,0,0,0,0,0   c-0.3,0.6-0.5,1.1-0.8,1.7c-0.4,1-0.8,1.9-1.2,2.9c0-1-0.5-1.9-1.1-2.7c-1-1.3-2.6-2.3-3.1-2.5c0.5,1.4-0.8,1.8-0.3,4.2   c0.9,2.6,2.8,3,3.7,3.2l0,0c-0.5,1.6-1,3.2-1.3,4.8c-0.1-1-0.7-1.9-1.4-2.6c-1.2-1.2-2.9-2-3.5-2.2c0.7,1.4-0.5,2,0.2,4.3   c1.3,2.5,3.3,2.7,4.2,2.8c-0.3,1.6-0.6,3.2-0.7,4.8c0-0.2-0.1-0.3-0.1-0.5c-0.3-0.8-0.9-1.4-1.7-2c-1.4-1.1-3.2-1.7-3.8-1.8   c0.8,1.3-0.2,2.1,0.8,4.3c0.7,1.2,1.7,1.8,2.5,2c0.8,0.3,1.6,0.3,2.1,0.2c-0.1,1.6-0.1,3.2-0.1,4.8C6.1,67.5,6,67.4,6,67.3   c-0.5-0.8-1.2-1.3-1.9-1.8c-1.5-0.9-3.4-1.2-4-1.3c0.5,0.6,0.5,1.2,0.5,1.8c0,0.7,0.1,1.4,0.8,2.5c1.9,2.2,4,1.8,4.9,1.7v0   c0.1,1.6,0.3,3.2,0.6,4.8c-0.1-0.2-0.2-0.3-0.3-0.5c-0.5-0.7-1.3-1.2-2.1-1.6c-1.7-0.7-3.6-0.8-4.3-0.8c0.6,0.6,0.7,1.1,0.8,1.7   c0.1,0.6,0.2,1.4,1.1,2.4c2.2,1.9,4.3,1.4,5.2,1.1v0c0.2,0.9,0.4,1.8,0.6,2.7c0.2,0.7,0.3,1.4,0.5,2c-0.1-0.2-0.2-0.3-0.4-0.5   c-0.6-0.7-1.5-1.1-2.4-1.3c-1.8-0.5-3.8-0.4-4.4-0.3c1.4,1,0.6,2.1,2.4,4c2.5,1.7,4.5,0.9,5.4,0.4v0c0.5,1.5,1,3,1.6,4.5   c-0.1-0.1-0.2-0.3-0.4-0.4c-0.7-0.6-1.6-0.9-2.6-1.1c-1.9-0.3-3.8,0-4.5,0.2c1.4,0.9,0.9,2.1,2.9,3.7c1.3,0.8,2.5,0.8,3.4,0.7   c0.9-0.2,1.7-0.6,2.1-0.8c0,0,0,0,0-0.1c0.6,1.4,1.4,2.8,2.1,4.2c-0.1-0.1-0.3-0.2-0.4-0.3c-0.8-0.5-1.8-0.7-2.7-0.8   c-1.9-0.1-3.9,0.5-4.5,0.8c0.8,0.3,1.1,0.8,1.4,1.4c0.4,0.6,0.8,1.3,2,2c2.8,1.2,4.7-0.2,5.6-0.9c0,0,0,0,0-0.1   c0.8,1.3,1.7,2.6,2.6,3.9c-0.2-0.1-0.3-0.2-0.5-0.3c-0.9-0.4-1.8-0.5-2.8-0.4c-2,0.1-3.9,1-4.5,1.3c0.9,0.3,1.2,0.7,1.6,1.3   c0.4,0.6,1,1.2,2.2,1.8c3.1,0.8,4.7-0.8,5.5-1.6c0-0.1,0-0.1,0-0.1c1,1.3,2.1,2.5,3.2,3.6c-0.2-0.1-0.4-0.2-0.6-0.3   c-0.9-0.3-1.9-0.3-2.9-0.1c-2,0.4-3.8,1.5-4.4,1.9c0.9,0.2,1.3,0.6,1.8,1.1c0.5,0.5,1.1,1.2,2.5,1.5c3.2,0.4,4.7-1.4,5.4-2.3   c0-0.1,0-0.1-0.1-0.1c0.9,0.9,1.8,1.7,2.8,2.5c0.3,0.2,0.5,0.4,0.8,0.7c-0.2-0.1-0.5-0.2-0.7-0.2c-1-0.2-2,0-3,0.3   c-2,0.7-3.7,2-4.1,2.5c1.8,0.1,1.9,1.5,4.7,2.1c3.3,0,4.6-2.1,5.1-3.1c0,0,0-0.1-0.1-0.1c1.2,0.9,2.5,1.8,3.9,2.6   c-0.2-0.1-0.4-0.1-0.7-0.1c-1-0.1-2,0.3-3,0.7c-1.9,0.9-3.4,2.5-3.8,3c1.8-0.1,2.1,1.3,5,1.5c1.6-0.2,2.8-0.9,3.5-1.7   c0.7-0.8,1.1-1.6,1.3-2.1c0,0-0.1-0.1-0.1-0.1c0.9,0.5,1.9,1,2.8,1.4c0.5,0.2,0.9,0.4,1.4,0.6c-0.2,0-0.5,0-0.7,0   c-0.5,0.1-1,0.2-1.5,0.4c-0.5,0.2-0.9,0.4-1.4,0.7c-1.7,1.2-3.1,3-3.4,3.6c0.9-0.2,1.5,0.1,2.2,0.4c0.7,0.3,1.6,0.6,3.1,0.4   c1.7-0.4,2.6-1.2,3.2-2.1c0.6-0.9,0.9-1.7,1-2.3c0,0-0.1-0.1-0.1-0.1c0.2,0.1,0.3,0.1,0.5,0.2c1.3,0.5,2.5,0.9,3.8,1.3   c-1.3,0-2.5,0.7-3.5,1.5c-1.6,1.4-2.7,3.4-3,4.1c1.7-0.7,2.3,0.8,5.3,0.2c3.2-1.2,3.7-3.8,3.8-4.9c0,0-0.1-0.1-0.1-0.1   c0.8,0.2,1.7,0.4,2.5,0.6c0.7,0.2,1.3,0.3,2,0.4c-1.3,0.2-2.4,1-3.3,1.9c-1.5,1.6-2.4,3.7-2.6,4.4c1.8-0.9,2.6,0.6,5.5-0.4   c3.1-1.7,3.2-4.3,3.2-5.5c0,0-0.1,0-0.2-0.1c1.5,0.2,3.1,0.4,4.6,0.4c1.2,0.1,2.2,0.3,3,0.8c-1.1,0.7-1.9,1.6-2.7,2.4   c-0.5,0.5-1,1-1.5,1.5l0.3,0.5c0.5-0.4,1-0.9,1.5-1.5c0.9-0.9,1.8-1.9,3-2.6c1.2,0.7,2.1,1.6,3,2.6c0.5,0.5,1,1,1.5,1.5l0.3-0.5   c-0.5-0.4-1-0.9-1.5-1.4c-0.8-0.8-1.6-1.7-2.7-2.4c0.8-0.4,1.8-0.7,3.1-0.8c1.6-0.1,3.1-0.2,4.6-0.4c-0.1,0-0.1,0-0.2,0.1   c0,1.2,0.1,3.8,3.2,5.5c2.9,0.9,3.8-0.5,5.5,0.4c-0.2-0.7-1.1-2.8-2.6-4.4c-0.9-1-2-1.8-3.3-1.9c0.7-0.1,1.3-0.2,2-0.4   c0.8-0.2,1.7-0.4,2.5-0.6c0,0-0.1,0.1-0.1,0.1c0.2,1.1,0.6,3.7,3.8,4.9c2.9,0.6,3.5-0.9,5.3-0.2c-0.3-0.7-1.4-2.7-3-4.1   c-1-0.9-2.2-1.5-3.5-1.5c1.3-0.4,2.6-0.9,3.8-1.3c0.2-0.1,0.3-0.1,0.5-0.2l-0.1,0.1c0.1,0.6,0.4,1.4,1,2.3c0.6,0.9,1.6,1.7,3.2,2.1   c1.5,0.1,2.4-0.2,3.1-0.4c0.7-0.3,1.3-0.6,2.2-0.4c-0.3-0.6-1.7-2.4-3.4-3.6c-0.4-0.3-0.9-0.5-1.4-0.7c-0.5-0.2-1-0.3-1.5-0.4   c-0.2,0-0.4,0-0.7,0c0.4-0.2,0.9-0.4,1.4-0.6c0.9-0.5,1.9-0.9,2.8-1.4c0,0-0.1,0.1-0.1,0.1c0.2,0.5,0.6,1.3,1.3,2.1   c0.7,0.7,1.8,1.5,3.5,1.7c2.9-0.2,3.2-1.6,5-1.5c-0.4-0.6-2-2.1-3.8-3c-0.9-0.5-1.9-0.8-2.9-0.7c-0.2,0-0.4,0.1-0.7,0.1   c1.3-0.8,2.6-1.7,3.8-2.6c0,0,0,0.1-0.1,0.1c0.6,1,1.8,3,5.1,3.1c2.8-0.6,2.9-2,4.7-2.1c-0.5-0.5-2.2-1.8-4.1-2.5   c-1-0.3-2-0.5-2.9-0.3c-0.2,0.1-0.4,0.1-0.7,0.2c0.3-0.2,0.6-0.4,0.8-0.7c1-0.8,1.9-1.7,2.8-2.5c0,0-0.1,0.1-0.1,0.1   c0.7,0.9,2.1,2.7,5.4,2.3c1.4-0.4,1.9-1,2.5-1.5c0.5-0.5,0.9-0.9,1.8-1.1c-0.5-0.4-2.4-1.5-4.3-1.9c-1-0.2-2-0.2-2.9,0.1   c-0.2,0.1-0.4,0.2-0.7,0.3c1.1-1.2,2.2-2.4,3.2-3.6c0,0,0,0.1-0.1,0.1c0.8,0.8,2.4,2.4,5.5,1.6c1.3-0.6,1.8-1.2,2.2-1.8   c0.4-0.6,0.8-1,1.6-1.3c-0.6-0.4-2.5-1.2-4.5-1.3c-1-0.1-1.9,0-2.8,0.4c-0.2,0.1-0.3,0.2-0.5,0.3c0.9-1.3,1.8-2.6,2.6-3.9   c0,0,0,0,0,0.1c0.8,0.6,2.7,2,5.6,0.9c1.1-0.7,1.6-1.4,2-2c0.3-0.6,0.6-1.1,1.4-1.4c-0.6-0.3-2.6-0.9-4.5-0.8   c-0.9,0.1-1.9,0.2-2.7,0.8c-0.2,0.1-0.3,0.2-0.4,0.3c0.8-1.4,1.5-2.8,2.1-4.2c0,0,0,0,0,0.1c0.4,0.3,1.2,0.7,2.1,0.8   c0.9,0.2,2.2,0.1,3.4-0.7c2-1.7,1.5-2.9,2.9-3.7c-0.6-0.2-2.6-0.6-4.5-0.2c-0.9,0.2-1.9,0.5-2.6,1.1c-0.2,0.1-0.3,0.3-0.4,0.4   c0.6-1.5,1.1-3,1.6-4.5v0c0.9,0.4,3,1.3,5.4-0.4c1.8-1.8,1-3,2.4-4c-0.6-0.1-2.6-0.2-4.4,0.3c-0.9,0.2-1.8,0.7-2.4,1.3   c-0.1,0.2-0.2,0.3-0.4,0.5c0.2-0.7,0.4-1.4,0.5-2c0.2-0.9,0.4-1.8,0.6-2.7v0c0.9,0.3,3,0.9,5.2-1.1c0.8-1,0.9-1.8,1.1-2.4   c0.1-0.6,0.2-1.2,0.8-1.7C128.3,72.1,126.3,72.2,124.7,72.9L124.7,72.9L124.7,72.9z" />
  <path d="M55.6,17.9c0.8,1.8,1.5,3.2,0.7,5   c6.2,0.2,10.8,0.2,17,0c-0.8-1.8,0-3.2,0.8-5c3.4-2.2,4.2-4.6,4.4-6.1c0.2-2-0.6-3.9-2.2-5.1c-1.4-1-3.1-1.2-4.8-0.6   c0,0-0.1,0-0.1,0c-1.3-0.7-3-0.7-4.4-0.2c-0.1,0-0.2,0.1-0.2,0.1c-0.4-0.2-0.9-0.3-1.3-0.3l0-0.1c0.2-0.6,0.8-1.2,1.4-1.5L67.3,4   c0.5-0.3,0.5-0.7,0-1L67,2.9c-0.5-0.3-1.2-1-1.4-1.5l-0.4-0.9c-0.2-0.6-0.6-0.6-0.8,0L64,1.3c-0.2,0.6-0.8,1.2-1.4,1.5L62.3,3   c-0.5,0.3-0.5,0.7,0,1l0.3,0.2c0.5,0.3,1.2,1,1.4,1.5l0,0.1c-0.5,0-0.9,0.1-1.3,0.3c-0.1,0-0.2-0.1-0.2-0.1c-1.4-0.6-3-0.5-4.4,0.2   c0,0,0,0-0.1,0c-1.6-0.6-3.4-0.4-4.8,0.6c-1.6,1.1-2.4,3.1-2.2,5.1C51.3,13.3,52.2,15.7,55.6,17.9L55.6,17.9L55.6,17.9z M75.6,7.8   c1.2,0.9,1.8,2.4,1.7,3.9c-0.3,2.2-2.1,4.3-5.1,5.9c-0.8,0-1.6,0-2.3-0.1c0.6-0.8,1.4-1.7,2.4-2.8c1.4-1.6,2-3.8,1.7-5.6   c-0.2-0.8-0.5-1.5-1-2.1C73.8,7,74.8,7.2,75.6,7.8z M70.9,7.3c0.9,0.5,1.5,1.2,1.7,2.2c0.3,1.4-0.3,3.2-1.4,4.5   c-1.3,1.5-2.3,2.7-3,3.6c-0.4,0-0.8,0-1.2,0C69.8,10,68.7,7.9,67.9,7C68.9,6.7,70,6.8,70.9,7.3L70.9,7.3L70.9,7.3z M62.9,7.6   L62.9,7.6L62.9,7.6c0.3-0.4,0.7-0.5,1.3-0.6c0.2,0,0.4,0,0.6,0c0.1,0,0.1,0,0.2,0c0.2,0,0.4,0,0.6,0c0.5,0.1,0.9,0.2,1.2,0.5l0,0.1   l0.1,0.1c0.5,0.6,1.8,2-1.2,9.8H64C61.1,9.7,62.4,8.2,62.9,7.6L62.9,7.6L62.9,7.6z M57,9.4c0.2-1,0.8-1.7,1.7-2.2s2-0.5,3-0.2   c-0.8,0.9-1.8,3,0.9,10.5c-0.4,0-0.8,0-1.3,0c-0.7-0.9-1.7-2.1-3-3.6C57.3,12.6,56.7,10.8,57,9.4C57,9.4,57,9.4,57,9.4z M54,7.7   c0.8-0.6,1.8-0.8,2.8-0.6c-0.5,0.6-0.9,1.2-1,2.1c-0.4,1.8,0.3,4,1.7,5.6c1,1.1,1.7,2,2.4,2.8c-0.8,0-1.5,0-2.3,0.1   c-3-1.6-4.8-3.7-5.1-5.9C52.2,10.1,52.8,8.6,54,7.7z" />
</g>

<g fill="url(#gold)" text-anchor="middle" font-family="'Noto Sans JP','Hiragino Kaku Gothic ProN','Yu Gothic',sans-serif" font-weight="700">
  <path d="M41.709999999999994 42.83C41.709999999999994 43.55 41.69 44.07 41.669999999999995 44.4H40.949999999999996C40.47 44.4 40.26 44.39 39.97 44.34V45.48C40.26 45.43 40.5 45.42 40.94 45.42H41.559999999999995C41.339999999999996 46.79 40.79 47.79 39.82 48.61C40.07 48.86 40.3 49.16 40.529999999999994 49.52C41.349999999999994 48.74 41.839999999999996 48.0 42.19 47.01C42.5 47.53 42.8 47.9 43.32 48.38C43.54 48.03 43.69 47.84 44.04 47.46C43.33 46.96 42.959999999999994 46.55 42.51 45.77C42.54 45.61 42.55 45.56 42.57 45.42H43.0C43.379999999999995 45.42 43.599999999999994 45.43 43.87 45.46V44.35C43.61 44.39 43.41 44.4 43.029999999999994 44.4H42.68C42.699999999999996 44.05 42.72 43.519999999999996 42.73 42.83H42.82C43.18 42.83 43.459999999999994 42.84 43.72 42.87V41.81C43.48 41.85 43.25 41.86 42.83 41.86H41.69C41.75 41.67 41.779999999999994 41.56 41.82 41.39C41.9 41.06 41.97 40.83 42.01 40.730000000000004L40.959999999999994 40.55C40.919999999999995 40.91 40.91 40.980000000000004 40.82 41.33C40.58 42.2 40.309999999999995 42.769999999999996 39.809999999999995 43.44C40.08 43.6 40.37 43.84 40.629999999999995 44.12C40.98 43.6 41.089999999999996 43.39 41.33 42.83ZM44.599999999999994 48.4C44.129999999999995 48.4 43.91 48.39 43.589999999999996 48.35V49.48C43.9 49.44 44.129999999999995 49.43 44.599999999999994 49.43H48.18C48.65 49.43 48.879999999999995 49.44 49.19 49.48V48.35C48.87 48.39 48.65 48.4 48.18 48.4H47.589999999999996C47.92 47.75 48.12 47.26 48.39 46.44L47.339999999999996 46.09C47.11 47.03 46.919999999999995 47.57 46.53 48.4ZM43.93 42.1C44.239999999999995 42.07 44.5 42.06 44.94 42.06H48.01C48.459999999999994 42.06 48.699999999999996 42.07 49.019999999999996 42.1V40.99C48.72 41.03 48.5 41.04 48.01 41.04H44.94C44.449999999999996 41.04 44.23 41.03 43.93 40.99ZM48.58 43.7C48.58 43.269999999999996 48.589999999999996 43.07 48.62 42.769999999999996C48.339999999999996 42.8 48.06999999999999 42.81 47.61 42.81H45.169999999999995C44.699999999999996 42.81 44.43 42.8 44.16 42.769999999999996C44.19 43.08 44.199999999999996 43.29 44.199999999999996 43.7V45.11C44.199999999999996 45.51 44.19 45.71 44.16 46.02C44.44 45.99 44.72 45.98 45.11 45.98H47.67C48.06999999999999 45.98 48.31999999999999 45.99 48.62 46.02C48.58 45.72 48.58 45.53 48.58 45.11ZM45.23 43.79H47.53V44.99H45.23ZM46.15 47.87C45.9 47.2 45.699999999999996 46.78 45.28 46.09L44.349999999999994 46.5C44.72 47.08 44.94 47.57 45.18 48.28Z M57.73 46.68V48.55C57.73 48.73 57.66 48.77 57.349999999999994 48.77C57.12 48.77 56.919999999999995 48.75 56.47 48.67C56.62 49.09 56.68 49.34 56.73 49.77C57.22 49.8 57.239999999999995 49.8 57.36 49.8C57.8 49.8 58.15 49.75 58.349999999999994 49.66C58.629999999999995 49.54 58.769999999999996 49.23 58.769999999999996 48.74V42.11C58.769999999999996 41.56 58.78 41.26 58.809999999999995 41.01C58.51 41.04 58.28 41.05 57.73 41.05H56.28C55.76 41.05 55.489999999999995 41.04 55.169999999999995 41.01C55.209999999999994 41.35 55.22 41.63 55.22 42.31C55.22 44.88 55.16 46.36 55.019999999999996 47.22C54.879999999999995 48.02 54.65 48.53 54.16 49.08C54.51 49.37 54.699999999999996 49.54 55.01 49.89C55.709999999999994 48.99 55.959999999999994 48.26 56.11 46.68ZM57.73 44.32V45.73H56.18C56.209999999999994 45.28 56.22 44.91 56.23 44.32ZM57.73 43.36H56.239999999999995V42.04H57.73ZM50.8 41.72C50.379999999999995 41.72 50.209999999999994 41.71 50.04 41.67V42.68C50.22 42.65 50.379999999999995 42.64 50.8 42.64V46.5H50.669999999999995C50.29 46.5 50.129999999999995 46.49 49.93 46.46V47.47C50.12 47.44 50.29 47.43 50.699999999999996 47.43H53.98C54.39 47.43 54.629999999999995 47.44 54.82 47.46V46.46C54.64 46.49 54.55 46.49 54.22 46.5V42.64C54.58 42.64 54.73 42.65 54.9 42.68V41.67C54.73 41.7 54.57 41.71 54.22 41.72V41.55C54.22 41.18 54.23 40.93 54.269999999999996 40.7H53.18C53.22 40.92 53.23 41.16 53.23 41.55V41.72H51.79V41.55C51.79 41.19 51.8 40.94 51.839999999999996 40.7H50.75C50.79 40.94 50.8 41.19 50.8 41.55ZM51.79 46.5V45.74H53.23V46.5ZM51.79 44.86V44.18H53.23V44.86ZM51.79 43.3V42.64H53.23V43.3ZM51.39 47.52C50.97 48.21 50.62 48.58 49.93 49.07C50.33 49.4 50.48 49.56 50.699999999999996 49.86C51.459999999999994 49.19 51.73 48.88 52.239999999999995 48.04ZM52.68 48.06C53.08 48.72 53.08 48.72 53.65 49.35C53.86 49.07 54.089999999999996 48.85 54.4 48.61C53.839999999999996 48.1 53.82 48.08 53.47 47.54Z M63.739999999999995 48.34V48.6C63.739999999999995 48.84 63.699999999999996 48.86 63.26 48.86C63.11 48.86 62.809999999999995 48.83 62.519999999999996 48.79C62.65 49.14 62.699999999999996 49.39 62.73 49.73C62.919999999999995 49.74 63.07 49.74 63.16 49.74C64.42 49.74 64.64999999999999 49.59 64.64999999999999 48.76V46.43C64.64999999999999 46.11 64.66 45.87 64.69 45.62C64.45 45.65 64.28 45.66 63.83 45.66H62.79C62.839999999999996 45.38 62.839999999999996 45.38 62.879999999999995 45.19H63.65C63.91 45.19 64.07 45.19 64.37 45.21C64.36 45.02 64.35 44.81 64.35 44.59V44.29C64.52 44.49 64.58 44.57 64.71 44.82C64.89 44.59 64.92999999999999 44.53 65.1 44.24C65.08 44.51 65.08 44.58 65.08 44.9V48.74C65.08 49.29 65.07 49.59 65.03 49.83H66.05V49.38H68.13C68.52 49.38 68.92999999999999 49.4 69.19 49.44V48.37C68.94 48.4 68.64 48.42 68.22999999999999 48.42H67.87V47.13H68.06C68.39999999999999 47.13 68.69 47.15 68.89999999999999 47.18V46.19C68.67999999999999 46.23 68.45 46.24 68.06 46.24H67.87V45.13H68.05C68.42 45.13 68.69 45.14 68.89999999999999 45.17V44.19C68.67999999999999 44.23 68.49 44.24 68.06 44.24H67.87V43.13H68.08C68.58 43.13 68.85 43.14 69.11 43.17V42.12C68.83 42.16 68.63 42.17 68.08 42.17H67.92999999999999C68.0 42.04 68.22999999999999 41.53 68.27 41.42C68.42999999999999 41.01 68.42999999999999 41.01 68.49 40.86L67.5 40.6C67.36 41.21 67.22 41.64 66.96 42.17H66.14999999999999C66.33 41.69 66.44 41.39 66.52 41.14C66.58 40.95 66.6 40.92 66.66 40.769999999999996L65.61 40.49C65.5 41.2 65.36 41.69 65.05 42.4C64.83 42.92 64.59 43.36 64.35 43.71V43.01C64.35 42.76 64.36 42.61 64.39 42.43H63.44C63.47 42.62 63.48 42.79 63.48 43.01V44.42H61.29V43.92C61.449999999999996 44.07 61.54 44.19 61.699999999999996 44.41C62.099999999999994 44.13 62.25 44.01 62.48 43.8C62.66 43.97 62.739999999999995 44.06 62.989999999999995 44.33L63.47 43.74C63.23 43.5 63.15 43.43 62.98 43.28C63.16 43.08 63.22 43.0 63.41 42.75L62.83 42.28C62.669999999999995 42.55 62.61 42.62 62.44 42.82C62.199999999999996 42.63 62.14 42.58 61.849999999999994 42.37L61.36 42.86C61.65 43.07 61.739999999999995 43.14 61.949999999999996 43.31C61.699999999999996 43.519999999999996 61.599999999999994 43.59 61.29 43.78V43.01C61.29 42.78 61.3 42.62 61.33 42.43H60.37C60.4 42.67 60.419999999999995 42.92 60.419999999999995 43.13V44.48C60.419999999999995 44.81 60.41 45.02 60.379999999999995 45.21C60.68 45.19 60.82 45.19 61.15 45.19H61.97L61.9 45.66H60.989999999999995C60.68 45.66 60.419999999999995 45.65 60.16 45.62C60.19 45.95 60.199999999999996 46.23 60.199999999999996 46.61V48.75C60.199999999999996 49.2 60.18 49.52 60.15 49.82H61.209999999999994C61.18 49.59 61.169999999999995 49.34 61.169999999999995 48.77V47.7L61.37 48.54C61.47 48.51 61.519999999999996 48.5 61.66 48.47C62.129999999999995 48.39 62.68 48.27 63.08 48.16C63.12 48.33 63.129999999999995 48.39 63.169999999999995 48.59ZM63.739999999999995 46.48V47.87C63.58 47.36 63.51 47.19 63.279999999999994 46.72L62.629999999999995 46.95C62.75 47.19 62.79 47.28 62.849999999999994 47.45C62.699999999999996 47.48 62.69 47.48 62.33 47.54C62.419999999999995 47.25 62.47 47.08 62.61 46.48ZM61.16 47.65V46.48H61.739999999999995C61.64 46.96 61.57 47.26 61.449999999999996 47.64C61.37 47.65 61.32 47.65 61.29 47.65C61.279999999999994 47.65 61.269999999999996 47.65 61.25 47.65ZM66.94 45.13V46.24H66.06V45.13ZM66.94 44.24H66.06V43.13H66.94ZM66.06 47.13H66.94V48.42H66.06ZM61.89 41.34H60.9C60.48 41.34 60.25 41.33 60.01 41.29V42.26C60.239999999999995 42.23 60.47 42.22 60.86 42.22H63.879999999999995C64.22 42.22 64.47999999999999 42.23 64.75999999999999 42.26V41.29C64.50999999999999 41.32 64.2 41.34 63.87 41.34H62.919999999999995V41.22C62.919999999999995 40.95 62.94 40.79 62.97 40.59H61.839999999999996C61.87 40.76 61.89 40.94 61.89 41.23Z M76.28 41.47C76.08 41.49 75.92999999999999 41.5 75.57 41.5H75.21V41.44C75.21 41.05 75.22 40.86 75.25999999999999 40.629999999999995H74.19C74.22999999999999 40.86 74.25 41.04 74.25 41.44V41.5H73.77C73.50999999999999 41.5 73.35 41.49 73.14999999999999 41.46V40.85C72.92 40.89 72.71 40.9 72.28 40.9H70.71C70.31 40.9 70.08 40.879999999999995 69.86999999999999 40.85V41.91C70.00999999999999 41.89 70.1 41.88 70.31 41.87V47.44C70.02 47.5 69.86999999999999 47.52 69.75999999999999 47.52L69.99 48.6C70.16 48.53 70.19 48.52 70.66 48.4C71.00999999999999 48.3 71.48 48.15 71.92 48.01V48.76C71.92 49.23 71.89999999999999 49.54 71.86999999999999 49.83H72.88C72.84 49.54 72.83 49.29 72.83 48.77V44.34H76.53999999999999C76.63 45.79 76.72 46.49 76.94 47.32C76.66 47.67 76.42999999999999 47.93 76.14999999999999 48.2C76.14999999999999 48.11 76.14999999999999 48.11 76.14999999999999 47.77V45.63C76.14999999999999 45.12 76.14999999999999 44.97 76.17 44.74C75.94 44.76 75.81 44.769999999999996 75.52 44.769999999999996H73.92999999999999C73.58 44.769999999999996 73.47 44.76 73.3 44.74C73.32 45.07 73.33 45.19 73.33 45.63V48.34C73.33 48.67 73.31 48.92 73.28999999999999 49.21H74.19V48.56H75.72C75.52 48.72 75.39 48.81 75.03999999999999 49.04C75.32 49.3 75.42 49.41 75.67 49.81C76.36 49.3 76.78 48.92 77.28 48.33C77.63 49.14 78.1 49.62 78.52 49.62C78.78 49.62 79.0 49.46 79.14 49.16C79.27 48.86 79.35 48.47 79.42999999999999 47.7C79.17999999999999 47.58 78.89999999999999 47.39 78.64 47.16C78.61 47.95 78.53999999999999 48.42 78.47 48.42C78.45 48.42 78.41 48.37 78.32 48.21C78.2 48.0 78.12 47.8 77.97999999999999 47.39C78.27 46.93 78.61 46.28 78.83 45.74C78.91 45.56 78.99 45.38 79.05 45.26L78.24 44.75C78.17999999999999 45.07 77.94 45.66 77.67999999999999 46.17C77.6 45.65 77.53999999999999 45.12 77.49 44.34H78.03999999999999C78.63 44.34 78.78999999999999 44.35 79.16 44.39V43.34C78.84 43.39 78.64 43.4 78.03999999999999 43.4H77.46C77.45 43.1 77.44 42.269999999999996 77.44 41.92C77.44 41.16 77.44 41.0 77.49 40.65H76.45C76.47 40.879999999999995 76.47999999999999 40.97 76.47999999999999 41.37C76.49 42.7 76.49 42.7 76.50999999999999 43.4H75.71C75.81 43.08 75.89 42.74 75.96 42.33C76.05 42.33 76.05 42.33 76.28 42.35ZM75.13 42.32C75.08 42.72 75.0 43.09 74.91 43.4H74.49C74.44 42.97 74.38 42.61 74.32 42.32ZM72.83 43.4V41.87C72.95 41.88 72.99 41.88 73.13 41.89V42.35C73.28 42.33 73.32 42.33 73.47 42.32C73.57 42.73 73.64 43.1 73.69 43.4ZM71.23 41.87H71.92V43.04H71.23ZM71.23 43.93H71.92V45.0H71.23ZM71.23 45.89H71.92V47.04C71.64999999999999 47.12 71.56 47.15 71.23 47.23ZM74.19 45.6H75.31V46.24H74.19ZM74.17999999999999 47.02H75.31V47.73H74.17999999999999ZM77.63 41.43C77.99 41.97 78.14 42.29 78.37 43.01L79.16 42.55C78.89 41.91 78.72 41.59 78.36 41.04Z M82.34 43.25C82.92999999999999 43.65 83.37 44.03 83.78 44.48C83.48 44.769999999999996 83.32 44.91 82.95 45.22C82.88 45.22 82.61 45.23 82.59 45.23C82.56 45.23 82.53999999999999 45.23 82.48 45.23L82.72 45.04L82.22 44.26C81.56 44.82 80.78999999999999 45.23 80.00999999999999 45.44L80.41 46.48C81.23 46.07 81.63 45.84 82.11999999999999 45.49L82.22 46.18C82.31 46.17 82.48 46.15 82.71 46.14C84.32 46.01 84.95 45.94 85.94 45.78C86.02 45.95 86.07 46.05 86.2 46.35L87.06 46.0C86.45 44.95 86.38 44.86 85.83 44.17L85.1 44.48C85.32 44.76 85.39 44.86 85.53 45.07C85.07 45.13 84.87 45.14 84.14 45.17C85.05 44.4 85.63 43.83 86.22999999999999 43.11L85.42999999999999 42.58C85.05 43.11 84.87 43.34 84.42999999999999 43.82C84.25999999999999 43.64 84.22 43.59 84.02 43.41C84.36 43.0 84.53999999999999 42.75 84.83 42.269999999999996H88.03999999999999C88.47999999999999 42.269999999999996 88.75999999999999 42.28 89.08 42.32V41.23C88.75999999999999 41.269999999999996 88.42 41.29 87.89 41.29H85.03999999999999V41.18C85.03999999999999 40.94 85.06 40.78 85.1 40.56H83.88C83.92 40.769999999999996 83.94 40.95 83.94 41.19V41.29H81.27C80.75 41.29 80.42 41.269999999999996 80.09 41.23V42.32C80.41 42.28 80.69 42.269999999999996 81.11999999999999 42.269999999999996H83.74C83.62 42.5 83.55 42.61 83.37 42.85C83.22 42.73 83.17 42.69 82.99 42.56ZM83.92 47.82V48.93C83.92 49.3 83.89999999999999 49.57 83.85 49.9H85.1C85.05 49.58 85.03 49.32 85.03 48.93V47.82H87.97999999999999C88.42 47.82 88.81 47.84 89.14999999999999 47.88V46.78C88.86 46.82 88.53 46.84 88.12 46.84H85.03V46.76C85.03 46.52 85.03999999999999 46.32 85.07 46.17H83.88C83.91 46.31 83.92 46.51 83.92 46.76V46.84H81.03999999999999C80.61999999999999 46.84 80.22 46.82 79.97 46.78V47.88C80.41 47.83 80.69 47.82 81.14 47.82ZM80.3 43.07C80.92 43.53 81.22 43.82 81.7 44.4L82.45 43.66C82.02 43.19 81.63 42.85 81.06 42.41ZM87.83 42.41C87.31 42.98 86.92 43.31 86.17999999999999 43.79L86.87 44.519999999999996C87.57 44.04 88.06 43.64 88.62 43.08ZM86.66 45.11C87.34 45.56 87.78999999999999 45.94 88.34 46.52L89.05 45.69C88.31 45.08 88.09 44.92 87.27 44.42Z" /><path d="M46.251416015625 90.0H40.120556640625V69.00390625H32.960888671875V64.9306640625Q35.795361328125 64.8046875 36.929150390625 64.552734375Q38.734814453125 64.15380859375 39.868603515625 62.95703125Q40.645458984375 62.13818359375 41.044384765625 60.7734375Q41.275341796875 59.95458984375 41.275341796875 59.5556640625H46.251416015625Z M60.854931640625 87.3203125Q60.854931640625 86.109375 61.706494140625 85.2578125Q62.558056640625 84.4140625 63.761181640625 84.4140625Q64.964306640625 84.4140625 65.815869140625 85.265625Q66.667431640625 86.1171875 66.667431640625 87.3203125Q66.667431640625 88.5234375 65.815869140625 89.375Q64.964306640625 90.2265625 63.761181640625 90.2265625Q62.558056640625 90.2265625 61.706494140625 89.375Q60.854931640625 88.5234375 60.854931640625 87.3203125ZM54.112744140625 83.6875Q53.261181640625 82.8359375 53.261181640625 81.6328125Q53.261181640625 80.4296875 54.112744140625 79.578125Q54.964306640625 78.7265625 56.167431640625 78.7265625Q57.370556640625 78.7265625 58.222119140625 79.578125Q59.073681640625 80.4296875 59.073681640625 81.6328125Q59.073681640625 82.8359375 58.226025390625 83.6875Q57.378369140625 84.5390625 56.167431640625 84.5390625Q54.964306640625 84.5390625 54.112744140625 83.6875ZM57.393994140625 90.296875H56.183056640625L62.518994140625 78.671875H63.706494140625ZM62.886181640625 88.1953125Q63.245556640625 88.5625 63.761181640625 88.5625Q64.276806640625 88.5625 64.640087890625 88.19921875Q65.003369140625 87.8359375 65.003369140625 87.3203125Q65.003369140625 86.8046875 64.640087890625 86.44140625Q64.276806640625 86.078125 63.761181640625 86.078125Q63.245556640625 86.078125 62.882275390625 86.44140625Q62.518994140625 86.8046875 62.518994140625 87.3203125Q62.518994140625 87.8359375 62.886181640625 88.1953125ZM55.292431640625 82.5078125Q55.651806640625 82.875 56.167431640625 82.875Q56.683056640625 82.875 57.046337890625 82.51171875Q57.409619140625 82.1484375 57.409619140625 81.6328125Q57.409619140625 81.1171875 57.046337890625 80.75390625Q56.683056640625 80.390625 56.167431640625 80.390625Q55.651806640625 80.390625 55.288525390625 80.75390625Q54.925244140625 81.1171875 54.925244140625 81.6328125Q54.925244140625 82.1484375 55.292431640625 82.5078125Z M79.136556640625 76.912C79.184556640625 77.28 79.200556640625 77.456 79.200556640625 77.968C79.200556640625 81.136 78.624556640625 83.648 77.472556640625 85.504C76.304556640625 87.392 74.576556640625 88.688 71.760556640625 89.776C72.144556640625 90.224 72.416556640625 90.64 72.784556640625 91.36C75.184556640625 90.352 76.84855664062499 89.168 78.144556640625 87.536C79.088556640625 89.056 80.176556640625 90.224 81.584556640625 91.232C81.920556640625 90.48 82.240556640625 89.952 82.704556640625 89.408C81.152556640625 88.496 80.032556640625 87.392 79.216556640625 85.968C79.664556640625 85.168 79.968556640625 84.464 80.224556640625 83.632C80.59255664062499 82.4 80.912556640625 80.608 80.992556640625 79.168C81.136556640625 77.12 81.136556640625 77.12 81.152556640625 76.944ZM69.456556640625 87.248C68.688556640625 87.536 68.416556640625 87.632 67.856556640625 87.76L68.368556640625 89.712C68.768556640625 89.52 68.880556640625 89.472 69.48855664062499 89.2C72.448556640625 87.92 73.792556640625 87.232 75.776556640625 86.016L75.392556640625 84.336C74.320556640625 85.024 72.752556640625 85.856 71.280556640625 86.512L71.200556640625 78.88V78.528C71.200556640625 77.888 71.23255664062499 77.408 71.280556640625 76.96H69.248556640625C69.328556640625 77.536 69.36055664062499 78.016 69.376556640625 78.864ZM72.59255664062499 78.864C74.048556640625 80.416 74.432556640625 80.928 75.648556640625 82.944L77.296556640625 81.80799999999999C76.112556640625 80.064 75.392556640625 79.168 74.12855664062499 77.888Z M96.00055664062499 88.896C96.00055664062499 89.36 95.920556640625 89.408 95.136556640625 89.408C94.512556640625 89.408 93.856556640625 89.344 93.05655664062499 89.232C93.328556640625 89.856 93.440556640625 90.256 93.552556640625 91.056C94.192556640625 91.088 94.672556640625 91.104 95.10455664062499 91.104C96.608556640625 91.104 97.184556640625 90.976 97.536556640625 90.528C97.728556640625 90.288 97.776556640625 90.048 97.776556640625 89.376V80.208C97.776556640625 79.536 97.792556640625 79.088 97.840556640625 78.656C97.296556640625 78.72 96.896556640625 78.736 96.016556640625 78.736H91.936556640625C91.952556640625 78.48 91.952556640625 78.48 91.968556640625 78.144C92.00055664062499 77.488 92.00055664062499 77.488 92.016556640625 77.264C92.032556640625 76.896 92.048556640625 76.752 92.112556640625 76.464H90.112556640625C90.176556640625 76.88 90.20855664062499 77.232 90.20855664062499 77.872C90.20855664062499 78.144 90.20855664062499 78.368 90.192556640625 78.736H86.272556640625C85.44055664062499 78.736 84.992556640625 78.72 84.416556640625 78.656C84.46455664062499 79.104 84.480556640625 79.55199999999999 84.480556640625 80.208V89.328C84.480556640625 90.096 84.448556640625 90.72 84.368556640625 91.264H86.33655664062499C86.272556640625 90.832 86.25655664062499 90.352 86.25655664062499 89.36V86.256C86.704556640625 86.72 87.05655664062499 87.168 87.280556640625 87.6C88.72055664062499 86.688 89.56855664062499 85.904 90.320556640625 84.768C90.640556640625 84.288 90.864556640625 83.84 91.088556640625 83.248C91.904556640625 84.752 93.280556640625 86.208 94.944556640625 87.312C95.264556640625 86.688 95.600556640625 86.224 96.00055664062499 85.80799999999999ZM96.00055664062499 80.336V85.632C94.912556640625 85.008 94.176556640625 84.464 93.48855664062499 83.76C92.768556640625 83.024 92.12855664062499 82.096 91.680556640625 81.104C91.728556640625 80.816 91.74455664062499 80.736 91.792556640625 80.336ZM86.25655664062499 80.336H90.048556640625C89.840556640625 81.728 89.48855664062499 82.768 88.912556640625 83.664C88.288556640625 84.624 87.552556640625 85.296 86.25655664062499 86.064Z" /></g>

</svg>