<?xml version='1.0' encoding='utf-8'?>
<svg xmlns="http://www.w3.org/2000/svg" viewBox="0 0 129.1 130.2" role="img">
<defs>
  <linearGradient id="gold" x1="100%" y1="0%" x2="0%" y2="100%">
    <stop offset="0" stop-color="#D8BE6A" />
    <stop offset="1" stop-color="#A97924" />
  </linearGradient>
</defs>
<g fill="url(#gold)">
  <path d="M124.7,72.9c-0.8,0.3-1.6,0.8-2.1,1.6c-0.1,0.2-0.2,0.3-0.3,0.5c0.2-1.6,0.4-3.2,0.6-4.8v0   c1,0.2,3.1,0.5,4.9-1.7c0.6-1.1,0.8-1.8,0.8-2.5c0-0.7,0-1.2,0.5-1.8c-0.6,0-2.5,0.4-4,1.3c-0.8,0.4-1.5,1-1.9,1.8   c-0.1,0.1-0.1,0.2-0.2,0.4c0.1-1.6,0-3.2-0.1-4.8c0.5,0,1.2,0,2.1-0.2s1.8-0.8,2.5-2c0.9-2.2-0.1-3,0.7-4.3   c-0.6,0.1-2.3,0.7-3.8,1.8c-0.7,0.5-1.3,1.2-1.7,2c-0.1,0.1-0.1,0.3-0.1,0.5c-0.2-1.6-0.4-3.2-0.7-4.8c0.9-0.1,3-0.3,4.2-2.8   c0.6-2.3-0.5-2.9,0.2-4.3c-0.6,0.2-2.2,1-3.5,2.2c-0.8,0.7-1.3,1.6-1.4,2.6c-0.4-1.6-0.8-3.2-1.3-4.8c0,0,0,0,0,0   c0.9-0.2,2.9-0.6,3.8-3.2c0.4-2.3-0.8-2.7-0.3-4.2c-0.5,0.2-2.1,1.2-3.1,2.5c-0.6,0.8-1.1,1.7-1.1,2.7c-0.4-1-0.8-2-1.2-2.9   c-0.2-0.6-0.5-1.1-0.8-1.7c0,0,0,0,0,0c0.8-0.3,2.8-1,3.2-3.5c0.1-2.3-1.1-2.6-0.8-4c-0.5,0.3-1.8,1.4-2.7,2.8   c-0.5,0.8-0.9,1.8-0.8,2.7c-0.8-1.5-1.6-2.9-2.5-4.3c0.8-0.4,2.5-1.3,2.8-3.9c-0.2-2.2-1.4-2.3-1.3-3.8c-0.4,0.3-1.7,1.6-2.3,3.1   c-0.4,0.9-0.6,1.8-0.4,2.8c-1-1.4-2-2.8-3-4.1c0.7-0.5,2.3-1.5,2.2-4.1c-0.2-1.1-0.6-1.6-0.9-2.1c-0.4-0.4-0.7-0.8-0.7-1.5   c-0.4,0.4-1.4,1.7-1.9,3.2c-0.3,0.9-0.4,1.8-0.1,2.7c-1.1-1.3-2.3-2.5-3.5-3.6c0.3-0.3,0.8-0.7,1.2-1.4c0.4-0.7,0.7-1.6,0.4-2.8   c-0.7-2-1.8-1.9-2-3.2c-0.3,0.4-1.2,1.9-1.5,3.4c-0.2,0.8-0.2,1.6,0.1,2.3c0,0.1,0.1,0.2,0.2,0.3c-1.3-1.1-2.6-2.2-3.9-3.2   c0.6-0.6,1.7-2,1.1-4.3c-0.2-0.5-0.4-0.8-0.7-1.1c-0.2-0.3-0.5-0.4-0.7-0.6c-0.4-0.3-0.8-0.6-1-1.2c-0.3,0.4-0.9,1.9-1,3.4   c-0.1,0.8,0.1,1.5,0.4,2.2c0.1,0.1,0.1,0.2,0.2,0.3c-1.1-0.8-2.2-1.5-3.3-2.1c0.1-0.9,0-2.3-1.7-3.2c-1.9-0.6-2.6,0.4-3.6-0.2   c0,0.5,0.3,2,1.1,3c0.7,1,1.9,1.6,3.9,0.8c0.4,0.3,0.9,0.5,1.3,0.8c-0.8-0.1-1.6,0.2-2.2,0.6c-1.3,0.8-2.2,2.1-2.5,2.5   c1.2-0.3,1.3,0.7,3.2,0.7c1.1-0.2,1.9-0.7,2.5-1.2c0.5-0.5,0.8-1,1-1.3c1.3,0.9,2.6,1.9,3.9,2.9c-0.8-0.2-1.6,0-2.3,0.3   c-1.4,0.7-2.5,1.9-2.9,2.3c1.2-0.2,1.3,0.8,3.1,1c2.2-0.1,3.4-1.4,3.9-2.1c1.2,1.1,2.3,2.2,3.5,3.4c-0.1,0-0.1,0-0.2-0.1   c-0.7-0.2-1.5-0.1-2.3,0.1c-1.5,0.5-2.8,1.5-3.2,1.9c1.3,0,1.1,1,3,1.4c2.2,0.2,3.6-1,4.2-1.6c1.1,1.2,2.1,2.4,3,3.7   c-0.7-0.4-1.6-0.5-2.4-0.3c-1.6,0.3-3,1.3-3.5,1.6c1.4,0.1,1,1.1,2.9,1.8c2.2,0.4,3.8-0.5,4.4-1.2c0.9,1.3,1.7,2.6,2.5,4   c0,0-0.1-0.1-0.1-0.1c-0.7-0.4-1.5-0.5-2.3-0.4c-1.6,0.1-3.2,0.9-3.7,1.2c0.7,0.1,0.9,0.5,1.2,0.8c0.3,0.4,0.7,0.8,1.5,1.3   c2.2,0.8,3.9-0.1,4.6-0.6c0.6,1.2,1.2,2.4,1.7,3.6c0.1,0.2,0.2,0.4,0.3,0.6c-0.1,0-0.1-0.1-0.2-0.1c-0.7-0.5-1.5-0.7-2.3-0.8   c-1.7-0.1-3.3,0.5-3.9,0.7c1.3,0.4,0.7,1.4,2.5,2.5c2.2,1,3.9,0.4,4.8,0c0.5,1.5,1,2.9,1.4,4.4c-0.6-0.7-1.4-1.1-2.3-1.2   c-1.7-0.3-3.5,0.1-4.1,0.3c0.6,0.3,0.8,0.7,1,1.1c0.2,0.5,0.4,1,1.2,1.7c2.1,1.3,3.9,0.9,4.9,0.5c0.3,1.5,0.6,3,0.9,4.5   c0-0.1-0.1-0.1-0.1-0.2c-0.5-0.7-1.3-1.1-2.2-1.3c-1.7-0.5-3.5-0.3-4.1-0.2c0.6,0.4,0.7,0.8,0.8,1.3c0.2,0.5,0.3,1.1,1,1.9   c1.9,1.6,3.9,1.4,4.9,1.2c0,0.3,0.1,0.5,0.1,0.8c0.1,1.2,0.2,2.5,0.2,3.8c0-0.1-0.1-0.2-0.1-0.3c-0.4-0.7-1.2-1.3-2-1.6   c-1.6-0.7-3.5-0.8-4.1-0.8c1.1,0.9,0.2,1.7,1.4,3.4c1.7,1.8,3.8,1.9,4.8,1.8c-0.1,1.5-0.2,3-0.3,4.5c-0.3-0.9-1-1.7-1.8-2.2   c-1.6-0.9-3.5-1.3-4.1-1.3c1.1,1.1,0,1.7,1,3.7c0.8,1.1,1.7,1.7,2.5,2.1c0.8,0.3,1.5,0.4,2,0.4c-0.2,1.5-0.5,2.9-0.9,4.4   c-0.2-1-0.8-1.8-1.6-2.4c-1.4-1.1-3.3-1.7-4-1.8c0.9,1.2-0.2,1.8,0.6,3.8c1.3,2.3,3.3,2.9,4.4,3c-0.4,1.4-0.8,2.8-1.3,4.2   c0-0.1,0-0.2,0-0.3c-0.2-0.9-0.7-1.7-1.4-2.4c-1.3-1.3-3.2-2.1-3.8-2.3c0.4,0.7,0.3,1.1,0.1,1.6c-0.1,0.6-0.2,1.2,0,2.3   c1,2.5,3,3.3,4,3.6c-0.6,1.4-1.2,2.7-1.8,4c0.1-1.1-0.4-2.1-1.1-2.9c-1.2-1.5-2.9-2.5-3.5-2.8c0.6,1.4-0.7,1.7-0.3,4   c0.7,2.6,2.6,3.7,3.7,4.1c-0.3,0.5-0.6,1-0.8,1.5c-0.5,0.8-1,1.5-1.5,2.3c0-0.1,0-0.3,0.1-0.4c0.1-0.9-0.2-1.9-0.8-2.7   c-1-1.6-2.7-2.9-3.3-3.2c0.2,0.8,0,1.2-0.2,1.7c-0.3,0.5-0.6,1.1-0.6,2.3c0.4,2.8,2.2,4.1,3.2,4.6c-0.9,1.2-1.8,2.3-2.7,3.4   c0-0.1,0.1-0.2,0.1-0.4c0.2-0.9,0-1.9-0.4-2.8c-0.8-1.8-2.4-3.3-2.9-3.7c0.1,0.8-0.1,1.2-0.4,1.7c-0.3,0.5-0.7,1-0.9,2.2   c0.1,1.5,0.5,2.6,1,3.4c0.5,0.8,1.1,1.3,1.6,1.7c-1,1-2,2-3.1,3c0.5-1,0.4-2.1,0.1-3.2c-0.6-1.9-2-3.6-2.4-4.1   c0.1,1.6-1.2,1.4-1.8,3.7c-0.3,2.8,1.1,4.7,2,5.5c-1.1,0.9-2.2,1.7-3.4,2.5c0.1-0.1,0.1-0.2,0.2-0.3c0.4-0.9,0.5-1.9,0.3-2.9   c-0.3-2-1.5-3.9-1.9-4.4c-0.1,0.8-0.4,1.1-0.9,1.5s-0.9,0.9-1.4,2c-0.7,2.8,0.5,4.9,1.2,5.8c-0.2,0.1-0.3,0.2-0.5,0.3   c-1.1,0.6-2.1,1.2-3.2,1.7c0.8-0.9,1-2.1,1-3.2c-0.1-2-1-4.1-1.3-4.7c-0.4,1.6-1.6,1-2.8,3.2c-1.1,2.7-0.2,5,0.4,6   c-0.8,0.3-1.6,0.7-2.4,1c-0.5,0.2-1,0.4-1.5,0.6c0.9-0.8,1.3-2,1.4-3.2c0.2-2.1-0.4-4.3-0.7-5c-0.5,1.6-1.8,0.9-3.4,3   c-1.4,2.7-0.7,5.1-0.2,6.1c-1.3,0.4-2.7,0.8-4,1.1c1-0.7,1.5-1.9,1.8-3.1c0.4-2.1,0-4.4-0.2-5.1c-0.8,1.6-1.9,0.7-3.6,2.6   c-1.7,2.5-1.3,5-0.9,6.2c-2.2,0.4-4.4,0.6-6.6,0.8c-1.5,0.1-2.6,0.5-3.6,1c-1-0.5-2.1-0.9-3.6-1c-2.2-0.1-4.4-0.4-6.6-0.8   c0.4-1.2,0.8-3.6-0.9-6.2c-1.7-1.9-2.8-1-3.6-2.6c-0.2,0.7-0.6,3-0.2,5.1c0.2,1.2,0.8,2.3,1.8,3.1c-1.3-0.3-2.7-0.7-4-1.1   c0.5-1.1,1.3-3.4-0.2-6.1c-1.6-2.1-2.8-1.4-3.4-3c-0.3,0.7-0.9,2.9-0.7,5c0.1,1.2,0.5,2.4,1.4,3.2c-0.5-0.2-1-0.4-1.5-0.6   c-0.8-0.3-1.6-0.6-2.4-1c0.6-1,1.5-3.3,0.5-6c-1.2-2.2-2.4-1.6-2.8-3.2c-0.4,0.6-1.3,2.7-1.3,4.7c0,1.1,0.2,2.3,1,3.2   c-1.1-0.6-2.2-1.1-3.2-1.7c-0.2-0.1-0.3-0.2-0.5-0.3c0.7-0.9,1.9-3,1.2-5.8c-0.5-1.1-1-1.6-1.4-2c-0.4-0.4-0.8-0.7-0.9-1.5   c-0.4,0.6-1.6,2.4-1.9,4.4c-0.2,1-0.1,2,0.3,2.9c0,0.1,0.1,0.2,0.2,0.3c-1.2-0.8-2.3-1.6-3.4-2.5c0.8-0.8,2.2-2.6,2-5.5   c-0.6-2.3-1.9-2.1-1.8-3.7c-0.5,0.5-1.9,2.2-2.5,4.1c-0.4,1.1-0.4,2.2,0.1,3.2C25,109,24,108,23,107c0.4-0.3,1.1-0.9,1.6-1.7   c0.5-0.8,1-1.9,1-3.4c-0.1-1.2-0.5-1.8-0.9-2.2c-0.3-0.5-0.6-0.9-0.4-1.7c-0.5,0.4-2.1,1.9-2.9,3.7c-0.4,0.9-0.6,1.9-0.4,2.8   c0,0.1,0.1,0.2,0.1,0.4c-1-1.1-1.9-2.2-2.7-3.4c1-0.5,2.8-1.9,3.2-4.6c0-1.2-0.3-1.8-0.6-2.3c-0.3-0.5-0.5-0.9-0.2-1.7   c-0.6,0.3-2.3,1.6-3.3,3.2c-0.5,0.8-0.8,1.7-0.8,2.7c0,0.1,0,0.3,0,0.4c-0.5-0.8-1-1.5-1.5-2.3c-0.3-0.5-0.6-1-0.9-1.5   c1-0.4,2.9-1.5,3.7-4.1c0.3-2.3-0.9-2.6-0.3-4c-0.6,0.3-2.4,1.3-3.5,2.8C13.5,90.9,13,92,13.1,93c-0.7-1.3-1.3-2.7-1.8-4   c1-0.3,3-1.1,4-3.6c0.2-1.1,0.1-1.8,0-2.3c-0.1-0.5-0.2-1,0.1-1.6c-0.6,0.2-2.5,1-3.8,2.3c-0.7,0.7-1.2,1.4-1.4,2.4   c0,0.1,0,0.2,0,0.3c-0.5-1.4-0.9-2.8-1.3-4.2c1-0.2,3.1-0.7,4.4-3c0.7-2.1-0.3-2.6,0.6-3.8c-0.6,0.1-2.5,0.7-4,1.8   c-0.8,0.6-1.4,1.4-1.6,2.4c-0.3-1.4-0.6-2.9-0.9-4.4c0.5,0,1.2-0.1,2-0.4c0.8-0.3,1.7-1,2.5-2.1c1-2-0.1-2.6,1-3.7   c-0.6,0.1-2.6,0.4-4.1,1.3C8,70.8,7.3,71.6,7,72.5c-0.2-1.5-0.3-3-0.3-4.5c1,0.1,3.1,0,4.7-1.8c1.3-1.8,0.4-2.5,1.4-3.4   c-0.6,0-2.5,0-4.1,0.8c-0.8,0.4-1.5,0.9-2,1.6c-0.1,0.1-0.1,0.2-0.1,0.3c0-1.3,0.1-2.5,0.2-3.8c0-0.3,0.1-0.5,0.1-0.8   c1,0.2,3,0.4,4.9-1.2c0.7-0.8,0.9-1.4,1-1.9c0.1-0.5,0.2-0.9,0.8-1.3c-0.6-0.1-2.4-0.3-4.1,0.2c-0.8,0.2-1.6,0.7-2.2,1.3   c0,0.1-0.1,0.1-0.1,0.2c0.2-1.5,0.5-3,0.9-4.5C9.1,54,11,54.4,13,53.1c0.8-0.7,1-1.2,1.2-1.7c0.2-0.5,0.4-0.8,1-1.1   c-0.6-0.2-2.4-0.6-4.1-0.3c-0.9,0.2-1.8,0.5-2.3,1.2c0.4-1.5,0.9-3,1.4-4.4c0.9,0.5,2.6,1.1,4.8,0c1.7-1.1,1.2-2.1,2.5-2.5   c-0.5-0.2-2.2-0.8-3.9-0.7c-0.8,0-1.6,0.3-2.3,0.8c-0.1,0-0.1,0.1-0.1,0.1c0.1-0.2,0.2-0.4,0.3-0.6c0.5-1.2,1.1-2.4,1.7-3.6   c0.8,0.5,2.4,1.4,4.6,0.6c0.9-0.5,1.2-0.9,1.5-1.3s0.5-0.7,1.2-0.8c-0.5-0.3-2.1-1.1-3.7-1.2c-0.8-0.1-1.6,0-2.4,0.4   c0,0-0.1,0.1-0.1,0.1c0.8-1.3,1.6-2.7,2.5-4c0.7,0.6,2.2,1.6,4.5,1.2c1.9-0.7,1.5-1.8,2.9-1.8c-0.4-0.3-1.9-1.3-3.5-1.6   c-0.8-0.2-1.7-0.1-2.5,0.3c1-1.3,2-2.5,3-3.7c0.6,0.7,2,1.8,4.2,1.6c1.9-0.4,1.8-1.5,3-1.4c-0.4-0.4-1.7-1.5-3.2-1.9   c-0.7-0.2-1.5-0.3-2.3-0.1c0,0-0.1,0-0.2,0.1c1.1-1.2,2.3-2.3,3.5-3.4c0.5,0.7,1.7,2,3.9,2.1c1.8-0.3,1.9-1.2,3.1-1   c-0.3-0.4-1.5-1.6-2.9-2.3c-0.8-0.4-1.6-0.5-2.3-0.3c1.2-1,2.5-2,3.9-2.9c0.2,0.4,0.5,0.9,1,1.3c0.6,0.5,1.3,1,2.5,1.2   c1.9,0,2-1,3.2-0.7c-0.3-0.4-1.2-1.7-2.5-2.5c-0.7-0.4-1.4-0.7-2.2-0.6c0.4-0.3,0.9-0.5,1.3-0.8c2,0.7,3.1,0.1,3.9-0.9   c0.7-1.1,1-2.5,1-3c-1,0.6-1.7-0.3-3.6,0.2c-1.7,0.8-1.8,2.3-1.7,3.2c-1.1,0.7-2.2,1.4-3.3,2.1c0.1-0.1,0.1-0.2,0.2-0.3   c0.3-0.7,0.4-1.4,0.4-2.2c-0.1-1.5-0.8-3-1-3.4c-0.2,0.6-0.5,0.9-1,1.2c-0.2,0.2-0.5,0.3-0.7,0.6c-0.2,0.3-0.5,0.6-0.7,1.1   c-0.6,2.3,0.5,3.7,1.1,4.3c-1.4,1-2.7,2.1-3.9,3.2c0.1-0.1,0.1-0.2,0.2-0.3c0.3-0.7,0.2-1.5,0.1-2.3c-0.3-1.5-1.1-3-1.5-3.4   c-0.2,1.4-1.3,1.2-2,3.2c-0.2,1.2,0.1,2.1,0.5,2.8c0.4,0.7,0.9,1.1,1.2,1.4c-1.2,1.2-2.4,2.4-3.5,3.6c0.3-0.9,0.2-1.8-0.1-2.7   c-0.5-1.5-1.5-2.9-1.9-3.2c0,0.7-0.3,1-0.7,1.5c-0.4,0.4-0.7,1-1,2.1c-0.1,2.5,1.5,3.6,2.2,4.1c-1.1,1.3-2.1,2.7-3,4.1   c0.2-0.9,0.1-1.9-0.4-2.8c-0.7-1.5-1.9-2.7-2.3-3.1c0.1,1.5-1.1,1.6-1.3,3.8c0.3,2.6,1.9,3.5,2.8,3.9c-0.9,1.4-1.7,2.8-2.5,4.3   c0.1-1-0.2-1.9-0.8-2.7c-0.9-1.4-2.2-2.5-2.7-2.8c0.3,1.4-0.9,1.8-0.8,4c0.5,2.6,2.4,3.3,3.2,3.5c0,0,0,0,0,0   c-0.3,0.6-0.5,1.1-0.8,1.7c-0.4,1-0.8,1.9-1.2,2.9c0-1-0.5-1.9-1.1-2.7c-1-1.3-2.6-2.3-3.1-2.5c0.5,1.4-0.8,1.8-0.3,4.2   c0.9,2.6,2.8,3,3.7,3.2l0,0c-0.5,1.6-1,3.2-1.3,4.8c-0.1-1-0.7-1.9-1.4-2.6c-1.2-1.2-2.9-2-3.5-2.2c0.7,1.4-0.5,2,0.2,4.3   c1.3,2.5,3.3,2.7,4.2,2.8c-0.3,1.6-0.6,3.2-0.7,4.8c0-0.2-0.1-0.3-0.1-0.5c-0.3-0.8-0.9-1.4-1.7-2c-1.4-1.1-3.2-1.7-3.8-1.8   c0.8,1.3-0.2,2.1,0.8,4.3c0.7,1.2,1.7,1.8,2.5,2c0.8,0.3,1.6,0.3,2.1,0.2c-0.1,1.6-0.1,3.2-0.1,4.8C6.1,67.5,6,67.4,6,67.3   c-0.5-0.8-1.2-1.3-1.9-1.8c-1.5-0.9-3.4-1.2-4-1.3c0.5,0.6,0.5,1.2,0.5,1.8c0,0.7,0.1,1.4,0.8,2.5c1.9,2.2,4,1.8,4.9,1.7v0   c0.1,1.6,0.3,3.2,0.6,4.8c-0.1-0.2-0.2-0.3-0.3-0.5c-0.5-0.7-1.3-1.2-2.1-1.6c-1.7-0.7-3.6-0.8-4.3-0.8c0.6,0.6,0.7,1.1,0.8,1.7   c0.1,0.6,0.2,1.4,1.1,2.4c2.2,1.9,4.3,1.4,5.2,1.1v0c0.2,0.9,0.4,1.8,0.6,2.7c0.2,0.7,0.3,1.4,0.5,2c-0.1-0.2-0.2-0.3-0.4-0.5   c-0.6-0.7-1.5-1.1-2.4-1.3c-1.8-0.5-3.8-0.4-4.4-0.3c1.4,1,0.6,2.1,2.4,4c2.5,1.7,4.5,0.9,5.4,0.4v0c0.5,1.5,1,3,1.6,4.5   c-0.1-0.1-0.2-0.3-0.4-0.4c-0.7-0.6-1.6-0.9-2.6-1.1c-1.9-0.3-3.8,0-4.5,0.2c1.4,0.9,0.9,2.1,2.9,3.7c1.3,0.8,2.5,0.8,3.4,0.7   c0.9-0.2,1.7-0.6,2.1-0.8c0,0,0,0,0-0.1c0.6,1.4,1.4,2.8,2.1,4.2c-0.1-0.1-0.3-0.2-0.4-0.3c-0.8-0.5-1.8-0.7-2.7-0.8   c-1.9-0.1-3.9,0.5-4.5,0.8c0.8,0.3,1.1,0.8,1.4,1.4c0.4,0.6,0.8,1.3,2,2c2.8,1.2,4.7-0.2,5.6-0.9c0,0,0,0,0-0.1   c0.8,1.3,1.7,2.6,2.6,3.9c-0.2-0.1-0.3-0.2-0.5-0.3c-0.9-0.4-1.8-0.5-2.8-0.4c-2,0.1-3.9,1-4.5,1.3c0.9,0.3,1.2,0.7,1.6,1.3   c0.4,0.6,1,1.2,2.2,1.8c3.1,0.8,4.7-0.8,5.5-1.6c0-0.1,0-0.1,0-0.1c1,1.3,2.1,2.5,3.2,3.6c-0.2-0.1-0.4-0.2-0.6-0.3   c-0.9-0.3-1.9-0.3-2.9-0.1c-2,0.4-3.8,1.5-4.4,1.9c0.9,0.2,1.3,0.6,1.8,1.1c0.5,0.5,1.1,1.2,2.5,1.5c3.2,0.4,4.7-1.4,5.4-2.3   c0-0.1,0-0.1-0.1-0.1c0.9,0.9,1.8,1.7,2.8,2.5c0.3,0.2,0.5,0.4,0.8,0.7c-0.2-0.1-0.5-0.2-0.7-0.2c-1-0.2-2,0-3,0.3   c-2,0.7-3.7,2-4.1,2.5c1.8,0.1,1.9,1.5,4.7,2.1c3.3,0,4.6-2.1,5.1-3.1c0,0,0-0.1-0.1-0.1c1.2,0.9,2.5,1.8,3.9,2.6   c-0.2-0.1-0.4-0.1-0.7-0.1c-1-0.1-2,0.3-3,0.7c-1.9,0.9-3.4,2.5-3.8,3c1.8-0.1,2.1,1.3,5,1.5c1.6-0.2,2.8-0.9,3.5-1.7   c0.7-0.8,1.1-1.6,1.3-2.1c0,0-0.1-0.1-0.1-0.1c0.9,0.5,1.9,1,2.8,1.4c0.5,0.2,0.9,0.4,1.4,0.6c-0.2,0-0.5,0-0.7,0   c-0.5,0.1-1,0.2-1.5,0.4c-0.5,0.2-0.9,0.4-1.4,0.7c-1.7,1.2-3.1,3-3.4,3.6c0.9-0.2,1.5,0.1,2.2,0.4c0.7,0.3,1.6,0.6,3.1,0.4   c1.7-0.4,2.6-1.2,3.2-2.1c0.6-0.9,0.9-1.7,1-2.3c0,0-0.1-0.1-0.1-0.1c0.2,0.1,0.3,0.1,0.5,0.2c1.3,0.5,2.5,0.9,3.8,1.3   c-1.3,0-2.5,0.7-3.5,1.5c-1.6,1.4-2.7,3.4-3,4.1c1.7-0.7,2.3,0.8,5.3,0.2c3.2-1.2,3.7-3.8,3.8-4.9c0,0-0.1-0.1-0.1-0.1   c0.8,0.2,1.7,0.4,2.5,0.6c0.7,0.2,1.3,0.3,2,0.4c-1.3,0.2-2.4,1-3.3,1.9c-1.5,1.6-2.4,3.7-2.6,4.4c1.8-0.9,2.6,0.6,5.5-0.4   c3.1-1.7,3.2-4.3,3.2-5.5c0,0-0.1,0-0.2-0.1c1.5,0.2,3.1,0.4,4.6,0.4c1.2,0.1,2.2,0.3,3,0.8c-1.1,0.7-1.9,1.6-2.7,2.4   c-0.5,0.5-1,1-1.5,1.5l0.3,0.5c0.5-0.4,1-0.9,1.5-1.5c0.9-0.9,1.8-1.9,3-2.6c1.2,0.7,2.1,1.6,3,2.6c0.5,0.5,1,1,1.5,1.5l0.3-0.5   c-0.5-0.4-1-0.9-1.5-1.4c-0.8-0.8-1.6-1.7-2.7-2.4c0.8-0.4,1.8-0.7,3.1-0.8c1.6-0.1,3.1-0.2,4.6-0.4c-0.1,0-0.1,0-0.2,0.1   c0,1.2,0.1,3.8,3.2,5.5c2.9,0.9,3.8-0.5,5.5,0.4c-0.2-0.7-1.1-2.8-2.6-4.4c-0.9-1-2-1.8-3.3-1.9c0.7-0.1,1.3-0.2,2-0.4   c0.8-0.2,1.7-0.4,2.5-0.6c0,0-0.1,0.1-0.1,0.1c0.2,1.1,0.6,3.7,3.8,4.9c2.9,0.6,3.5-0.9,5.3-0.2c-0.3-0.7-1.4-2.7-3-4.1   c-1-0.9-2.2-1.5-3.5-1.5c1.3-0.4,2.6-0.9,3.8-1.3c0.2-0.1,0.3-0.1,0.5-0.2l-0.1,0.1c0.1,0.6,0.4,1.4,1,2.3c0.6,0.9,1.6,1.7,3.2,2.1   c1.5,0.1,2.4-0.2,3.1-0.4c0.7-0.3,1.3-0.6,2.2-0.4c-0.3-0.6-1.7-2.4-3.4-3.6c-0.4-0.3-0.9-0.5-1.4-0.7c-0.5-0.2-1-0.3-1.5-0.4   c-0.2,0-0.4,0-0.7,0c0.4-0.2,0.9-0.4,1.4-0.6c0.9-0.5,1.9-0.9,2.8-1.4c0,0-0.1,0.1-0.1,0.1c0.2,0.5,0.6,1.3,1.3,2.1   c0.7,0.7,1.8,1.5,3.5,1.7c2.9-0.2,3.2-1.6,5-1.5c-0.4-0.6-2-2.1-3.8-3c-0.9-0.5-1.9-0.8-2.9-0.7c-0.2,0-0.4,0.1-0.7,0.1   c1.3-0.8,2.6-1.7,3.8-2.6c0,0,0,0.1-0.1,0.1c0.6,1,1.8,3,5.1,3.1c2.8-0.6,2.9-2,4.7-2.1c-0.5-0.5-2.2-1.8-4.1-2.5   c-1-0.3-2-0.5-2.9-0.3c-0.2,0.1-0.4,0.1-0.7,0.2c0.3-0.2,0.6-0.4,0.8-0.7c1-0.8,1.9-1.7,2.8-2.5c0,0-0.1,0.1-0.1,0.1   c0.7,0.9,2.1,2.7,5.4,2.3c1.4-0.4,1.9-1,2.5-1.5c0.5-0.5,0.9-0.9,1.8-1.1c-0.5-0.4-2.4-1.5-4.3-1.9c-1-0.2-2-0.2-2.9,0.1   c-0.2,0.1-0.4,0.2-0.7,0.3c1.1-1.2,2.2-2.4,3.2-3.6c0,0,0,0.1-0.1,0.1c0.8,0.8,2.4,2.4,5.5,1.6c1.3-0.6,1.8-1.2,2.2-1.8   c0.4-0.6,0.8-1,1.6-1.3c-0.6-0.4-2.5-1.2-4.5-1.3c-1-0.1-1.9,0-2.8,0.4c-0.2,0.1-0.3,0.2-0.5,0.3c0.9-1.3,1.8-2.6,2.6-3.9   c0,0,0,0,0,0.1c0.8,0.6,2.7,2,5.6,0.9c1.1-0.7,1.6-1.4,2-2c0.3-0.6,0.6-1.1,1.4-1.4c-0.6-0.3-2.6-0.9-4.5-0.8   c-0.9,0.1-1.9,0.2-2.7,0.8c-0.2,0.1-0.3,0.2-0.4,0.3c0.8-1.4,1.5-2.8,2.1-4.2c0,0,0,0,0,0.1c0.4,0.3,1.2,0.7,2.1,0.8   c0.9,0.2,2.2,0.1,3.4-0.7c2-1.7,1.5-2.9,2.9-3.7c-0.6-0.2-2.6-0.6-4.5-0.2c-0.9,0.2-1.9,0.5-2.6,1.1c-0.2,0.1-0.3,0.3-0.4,0.4   c0.6-1.5,1.1-3,1.6-4.5v0c0.9,0.4,3,1.3,5.4-0.4c1.8-1.8,1-3,2.4-4c-0.6-0.1-2.6-0.2-4.4,0.3c-0.9,0.2-1.8,0.7-2.4,1.3   c-0.1,0.2-0.2,0.3-0.4,0.5c0.2-0.7,0.4-1.4,0.5-2c0.2-0.9,0.4-1.8,0.6-2.7v0c0.9,0.3,3,0.9,5.2-1.1c0.8-1,0.9-1.8,1.1-2.4   c0.1-0.6,0.2-1.2,0.8-1.7C128.3,72.1,126.3,72.2,124.7,72.9L124.7,72.9L124.7,72.9z" />
  <path d="M55.6,17.9c0.8,1.8,1.5,3.2,0.7,5   c6.2,0.2,10.8,0.2,17,0c-0.8-1.8,0-3.2,0.8-5c3.4-2.2,4.2-4.6,4.4-6.1c0.2-2-0.6-3.9-2.2-5.1c-1.4-1-3.1-1.2-4.8-0.6   c0,0-0.1,0-0.1,0c-1.3-0.7-3-0.7-4.4-0.2c-0.1,0-0.2,0.1-0.2,0.1c-0.4-0.2-0.9-0.3-1.3-0.3l0-0.1c0.2-0.6,0.8-1.2,1.4-1.5L67.3,4   c0.5-0.3,0.5-0.7,0-1L67,2.9c-0.5-0.3-1.2-1-1.4-1.5l-0.4-0.9c-0.2-0.6-0.6-0.6-0.8,0L64,1.3c-0.2,0.6-0.8,1.2-1.4,1.5L62.3,3   c-0.5,0.3-0.5,0.7,0,1l0.3,0.2c0.5,0.3,1.2,1,1.4,1.5l0,0.1c-0.5,0-0.9,0.1-1.3,0.3c-0.1,0-0.2-0.1-0.2-0.1c-1.4-0.6-3-0.5-4.4,0.2   c0,0,0,0-0.1,0c-1.6-0.6-3.4-0.4-4.8,0.6c-1.6,1.1-2.4,3.1-2.2,5.1C51.3,13.3,52.2,15.7,55.6,17.9L55.6,17.9L55.6,17.9z M75.6,7.8   c1.2,0.9,1.8,2.4,1.7,3.9c-0.3,2.2-2.1,4.3-5.1,5.9c-0.8,0-1.6,0-2.3-0.1c0.6-0.8,1.4-1.7,2.4-2.8c1.4-1.6,2-3.8,1.7-5.6   c-0.2-0.8-0.5-1.5-1-2.1C73.8,7,74.8,7.2,75.6,7.8z M70.9,7.3c0.9,0.5,1.5,1.2,1.7,2.2c0.3,1.4-0.3,3.2-1.4,4.5   c-1.3,1.5-2.3,2.7-3,3.6c-0.4,0-0.8,0-1.2,0C69.8,10,68.7,7.9,67.9,7C68.9,6.7,70,6.8,70.9,7.3L70.9,7.3L70.9,7.3z M62.9,7.6   L62.9,7.6L62.9,7.6c0.3-0.4,0.7-0.5,1.3-0.6c0.2,0,0.4,0,0.6,0c0.1,0,0.1,0,0.2,0c0.2,0,0.4,0,0.6,0c0.5,0.1,0.9,0.2,1.2,0.5l0,0.1   l0.1,0.1c0.5,0.6,1.8,2-1.2,9.8H64C61.1,9.7,62.4,8.2,62.9,7.6L62.9,7.6L62.9,7.6z M57,9.4c0.2-1,0.8-1.7,1.7-2.2s2-0.5,3-0.2   c-0.8,0.9-1.8,3,0.9,10.5c-0.4,0-0.8,0-1.3,0c-0.7-0.9-1.7-2.1-3-3.6C57.3,12.6,56.7,10.8,57,9.4C57,9.4,57,9.4,57,9.4z M54,7.7   c0.8-0.6,1.8-0.8,2.8-0.6c-0.5,0.6-0.9,1.2-1,2.1c-0.4,1.8,0.3,4,1.7,5.6c1,1.1,1.7,2,2.4,2.8c-0.8,0-1.5,0-2.3,0.1   c-3-1.6-4.8-3.7-5.1-5.9C52.2,10.1,52.8,8.6,54,7.7z" />
</g>

<g fill="url(#gold)" text-anchor="middle" font-family="'Noto Sans JP','Hiragino Kaku Gothic ProN','Yu Gothic',sans-serif" font-weight="700">
  <path d="M43.916 44.3065H44.562C44.951499999999996 44.3065 45.1605 44.316 45.4265 44.354V43.3755C45.1605 43.4135 44.998999999999995 43.423 44.647499999999994 43.423H43.916V42.8625H44.467C44.922999999999995 42.8625 45.113 42.872 45.303 42.891C45.284 42.663 45.274499999999996 42.435 45.274499999999996 41.865V40.174C45.274499999999996 39.670500000000004 45.284 39.452 45.303 39.2525C45.122499999999995 39.2715 44.94199999999999 39.281 44.504999999999995 39.281H43.906499999999994V38.7205H44.619C45.0845 38.7205 45.217499999999994 38.730000000000004 45.492999999999995 38.7585V37.799C45.227 37.837 45.037 37.8465 44.5715 37.8465H43.906499999999994V37.7515C43.906499999999994 37.457 43.9255 37.2385 43.973 36.982H42.928C42.965999999999994 37.248 42.985 37.466499999999996 42.985 37.7515V37.8465H42.244C41.778499999999994 37.8465 41.579 37.837 41.3225 37.799V38.7585C41.607499999999995 38.730000000000004 41.788 38.7205 42.1965 38.7205H42.985V39.281H42.519499999999994C42.016 39.281 41.835499999999996 39.2715 41.5695 39.243C41.598 39.5375 41.607499999999995 39.7845 41.607499999999995 40.2405V41.827C41.607499999999995 42.2735 41.598 42.587 41.5695 42.891C41.882999999999996 42.872 42.111 42.8625 42.5385 42.8625H42.985V43.423H42.1205C41.693 43.423 41.503 43.4135 41.2465 43.3755V44.3635C41.522 44.316 41.769 44.3065 42.168 44.3065H42.985V44.886C42.985 45.2185 42.965999999999994 45.4655 42.918499999999995 45.7695H43.973C43.934999999999995 45.475 43.916 45.2375 43.916 44.9335ZM43.887499999999996 42.036V41.4185H44.467V42.036ZM43.887499999999996 40.6775V40.1075H44.467V40.6775ZM43.01349999999999 40.1075V40.6775H42.424499999999995V40.1075ZM43.01349999999999 41.4185V42.036H42.424499999999995V41.4185ZM46.708999999999996 41.0765C46.556999999999995 41.9125 46.186499999999995 43.1475 45.7115 44.411C45.4075 44.4395 45.284 44.4395 45.037 44.449L45.2555 45.5225C45.4075 45.494 45.4645 45.4845 45.8065 45.4275C46.9845 45.228 47.659 45.114 47.83 45.0855C48.229 45.0 48.466499999999996 44.943 48.855999999999995 44.848C48.989 45.2755 48.989 45.2755 49.102999999999994 45.7125L50.034 45.2565C49.625499999999995 43.917 49.302499999999995 43.081 48.713499999999996 41.8365L47.839499999999994 42.1785C48.143499999999996 42.8435 48.324 43.2805 48.589999999999996 44.0215C48.001 44.1355 47.5355 44.2115 46.766 44.3065C47.155499999999996 43.29 47.468999999999994 42.2925 47.76349999999999 41.0765H49.007999999999996C49.407 41.0765 49.672999999999995 41.086 49.93899999999999 41.124V40.0695C49.672999999999995 40.117 49.4355 40.1265 49.007999999999996 40.1265H46.480999999999995C46.062999999999995 40.1265 45.815999999999995 40.117 45.55 40.0695V41.124C45.815999999999995 41.086 46.0725 41.0765 46.4525 41.0765ZM45.873 38.6635C46.12949999999999 38.6255 46.357499999999995 38.616 46.7945 38.616H48.70399999999999C48.989 38.616 49.24549999999999 38.6255 49.388 38.635C49.530499999999996 38.653999999999996 49.530499999999996 38.653999999999996 49.54 38.653999999999996C49.559 38.653999999999996 49.577999999999996 38.653999999999996 49.616 38.6445V37.6185C49.3595 37.666 49.16 37.6755 48.70399999999999 37.6755H46.7945C46.32899999999999 37.6755 46.12949999999999 37.666 45.873 37.6185Z M56.6935 37.8465C56.503499999999995 37.8655 56.361 37.875 56.019 37.875H55.677V37.818C55.677 37.4475 55.686499999999995 37.267 55.7245 37.0485H54.708C54.745999999999995 37.267 54.765 37.438 54.765 37.818V37.875H54.309C54.062 37.875 53.91 37.8655 53.72 37.837V37.2575C53.5015 37.295500000000004 53.302 37.305 52.893499999999996 37.305H51.401999999999994C51.022 37.305 50.8035 37.286 50.604 37.2575V38.2645C50.736999999999995 38.2455 50.8225 38.236 51.022 38.2265V43.518C50.7465 43.575 50.604 43.594 50.4995 43.594L50.717999999999996 44.62C50.8795 44.5535 50.907999999999994 44.544 51.354499999999994 44.43C51.687 44.335 52.1335 44.1925 52.5515 44.0595V44.772C52.5515 45.2185 52.5325 45.513 52.504 45.7885H53.463499999999996C53.4255 45.513 53.416 45.2755 53.416 44.7815V40.573H56.9405C57.025999999999996 41.9505 57.1115 42.6155 57.320499999999996 43.404C57.0545 43.7365 56.836 43.9835 56.56999999999999 44.24C56.56999999999999 44.1545 56.56999999999999 44.1545 56.56999999999999 43.8315V41.7985C56.56999999999999 41.314 56.56999999999999 41.1715 56.589 40.953C56.3705 40.972 56.247 40.9815 55.9715 40.9815H54.461C54.128499999999995 40.9815 54.023999999999994 40.972 53.8625 40.953C53.881499999999996 41.2665 53.891 41.3805 53.891 41.7985V44.373C53.891 44.6865 53.872 44.924 53.852999999999994 45.1995H54.708V44.582H56.1615C55.9715 44.734 55.848 44.8195 55.515499999999996 45.038C55.781499999999994 45.285 55.8765 45.3895 56.114 45.7695C56.769499999999994 45.285 57.168499999999995 44.924 57.643499999999996 44.3635C57.976 45.133 58.4225 45.589 58.8215 45.589C59.0685 45.589 59.277499999999996 45.437 59.4105 45.152C59.534 44.867 59.61 44.4965 59.68599999999999 43.765C59.448499999999996 43.651 59.1825 43.4705 58.9355 43.252C58.907 44.0025 58.8405 44.449 58.774 44.449C58.754999999999995 44.449 58.717 44.4015 58.631499999999996 44.2495C58.5175 44.05 58.4415 43.86 58.308499999999995 43.4705C58.583999999999996 43.033500000000004 58.907 42.416 59.116 41.903C59.19199999999999 41.732 59.268 41.561 59.324999999999996 41.447L58.555499999999995 40.9625C58.49849999999999 41.2665 58.2705 41.827 58.0235 42.3115C57.9475 41.8175 57.890499999999996 41.314 57.842999999999996 40.573H58.3655C58.925999999999995 40.573 59.077999999999996 40.5825 59.4295 40.6205V39.623C59.125499999999995 39.670500000000004 58.9355 39.68 58.3655 39.68H57.814499999999995C57.805 39.395 57.7955 38.6065 57.7955 38.274C57.7955 37.552 57.7955 37.4 57.842999999999996 37.0675H56.855C56.873999999999995 37.286 56.8835 37.3715 56.8835 37.7515C56.893 39.015 56.893 39.015 56.912 39.68H56.151999999999994C56.247 39.376 56.32299999999999 39.053 56.3895 38.6635C56.474999999999994 38.6635 56.474999999999994 38.6635 56.6935 38.6825ZM55.601 38.653999999999996C55.5535 39.034 55.4775 39.3855 55.391999999999996 39.68H54.992999999999995C54.945499999999996 39.2715 54.88849999999999 38.9295 54.8315 38.653999999999996ZM53.416 39.68V38.2265C53.529999999999994 38.236 53.568 38.236 53.70099999999999 38.2455V38.6825C53.8435 38.6635 53.881499999999996 38.6635 54.023999999999994 38.653999999999996C54.119 39.0435 54.1855 39.395 54.233 39.68ZM51.895999999999994 38.2265H52.5515V39.338H51.895999999999994ZM51.895999999999994 40.1835H52.5515V41.2H51.895999999999994ZM51.895999999999994 42.0455H52.5515V43.138C52.294999999999995 43.214 52.2095 43.2425 51.895999999999994 43.3185ZM54.708 41.77H55.772V42.378H54.708ZM54.698499999999996 43.119H55.772V43.7935H54.698499999999996ZM57.976 37.8085C58.318 38.3215 58.460499999999996 38.6255 58.678999999999995 39.3095L59.4295 38.8725C59.172999999999995 38.2645 59.0115 37.9605 58.6695 37.438Z M67.324 39.9365C67.21 40.6015 66.887 41.39 66.41199999999999 42.1595C66.1935 41.4375 66.06049999999999 40.5635 65.975 39.319H67.685C68.1695 39.319 68.53049999999999 39.338 68.844 39.3665V38.3215C68.597 38.369 68.34049999999999 38.3785 67.83699999999999 38.3785H67.55199999999999L68.04599999999999 38.036500000000004C67.685 37.571 67.5235 37.4095 67.0865 37.039L66.35499999999999 37.5045C66.7445 37.8275 66.925 38.027 67.191 38.3785H65.937C65.937 38.283500000000004 65.937 38.027 65.937 37.9415C65.937 37.628 65.956 37.2385 65.9845 37.039H64.854C64.892 37.248 64.892 37.286 64.9015 37.6375C64.9205 38.0555 64.9205 38.3025 64.92999999999999 38.3785H62.175C61.681 38.3785 61.2915 38.3595 60.9495 38.331C60.997 38.711 61.006499999999996 38.9485 61.006499999999996 39.68C61.006499999999996 41.371 60.9115 42.6345 60.7215 43.4325C60.598 43.974 60.3985 44.4205 60.065999999999995 44.9335C60.407999999999994 45.1805 60.598 45.361 60.8925 45.741C61.3105 45.076 61.500499999999995 44.6485 61.671499999999995 43.8885C61.814 43.2425 61.899499999999996 42.587 61.965999999999994 41.504H63.352999999999994C63.333999999999996 42.2735 63.2865 42.891 63.210499999999996 43.2235C63.163 43.461 63.0775 43.518 62.782999999999994 43.518C62.5075 43.518 62.364999999999995 43.5085 61.8615 43.442C62.004 43.8125 62.061 44.0405 62.1085 44.449C62.412499999999994 44.468 62.564499999999995 44.4775 62.8305 44.4775C63.562 44.4775 63.903999999999996 44.335 64.056 43.955C64.2175 43.556 64.2745 43.0525 64.3695 41.3425C64.3885 40.972 64.4075 40.706 64.4265 40.535C64.227 40.5635 64.08449999999999 40.573 63.751999999999995 40.573H62.004C62.01349999999999 40.231 62.01349999999999 40.231 62.022999999999996 39.319H64.968C65.07249999999999 40.991 65.2815 42.131 65.6805 43.1095C64.9585 43.879 64.1225 44.449 63.125 44.8575C63.44799999999999 45.133 63.552499999999995 45.247 63.846999999999994 45.684C64.6925 45.266 65.4335 44.7245 66.146 44.0215C66.697 44.9145 67.44749999999999 45.551 67.932 45.551C68.4545 45.551 68.78699999999999 44.9905 69.0055 43.708C68.597 43.4895 68.4735 43.3945 68.1505 43.0715C68.03649999999999 43.9645 68.03649999999999 43.9645 67.97 44.183C67.9225 44.3065 67.8845 44.3635 67.84649999999999 44.3635C67.7895 44.3635 67.5805 44.1925 67.419 44.0215C67.2195 43.803 67.0295 43.537 66.84899999999999 43.2045C67.3335 42.549 67.7135 41.8555 68.1315 40.8295C68.2835 40.4685 68.2835 40.4685 68.34049999999999 40.326Z M75.71249999999999 39.1765C75.722 38.787 75.7315 38.426 75.741 37.932C75.741 37.5615 75.75999999999999 37.3715 75.798 37.0865H74.639C74.6865 37.3905 74.696 37.5995 74.696 37.989C74.696 38.3975 74.6865 38.7205 74.66749999999999 39.1765H73.803C73.404 39.1765 73.2235 39.167 73.024 39.129V40.164500000000004C73.2615 40.1265 73.518 40.117 73.8885 40.117H74.5915C74.32549999999999 42.6155 73.594 43.898 71.846 44.9525C72.0835 45.1425 72.19749999999999 45.266 72.321 45.4085C72.53 45.6745 72.53 45.6745 72.625 45.7885C73.6605 45.0665 74.37299999999999 44.2685 74.8385 43.309C75.2565 42.4635 75.51299999999999 41.4375 75.6365 40.117H77.09949999999999C77.04249999999999 42.1595 76.976 43.2045 76.824 44.0025C76.729 44.506 76.65299999999999 44.582 76.235 44.582C75.893 44.582 75.5985 44.5535 74.9525 44.4585C75.1045 44.791 75.19 45.095 75.247 45.5415C75.703 45.5795 75.9975 45.5985 76.25399999999999 45.5985C76.786 45.5985 77.204 45.5225 77.4035 45.38C77.6695 45.19 77.831 44.7625 77.9165 43.974C78.002 43.271 78.116 41.504 78.154 40.63C78.1825 39.4805 78.192 39.357 78.211 39.1385C77.983 39.167 77.698 39.1765 77.24199999999999 39.1765ZM70.991 38.8915V42.7485C70.307 42.967 70.0125 43.033500000000004 69.661 43.081L69.8985 44.202C70.041 44.1355 70.155 44.088 70.364 44.0215C71.694 43.5845 72.2355 43.385 73.28999999999999 42.9385V41.96C72.7105 42.1975 72.5205 42.264 72.0075 42.435V38.8915H72.625C72.8625 38.8915 73.0715 38.900999999999996 73.2805 38.939V37.9035C73.04299999999999 37.9415 72.8055 37.951 72.44449999999999 37.951H70.6015C70.231 37.951 69.9935 37.9415 69.7655 37.9035V38.939C70.0315 38.900999999999996 70.1835 38.8915 70.4495 38.8915Z M82.999 40.649C81.74499999999999 41.4185 80.529 41.9695 79.085 42.397C79.3605 42.7485 79.484 42.9575 79.6455 43.347C80.377 43.0525 80.5765 42.967 81.15599999999999 42.682C81.1465 42.853 81.1465 43.062 81.1465 43.214V44.6865C81.1465 45.1045 81.1275 45.4465 81.0895 45.76H82.201V45.3515H85.6495V45.76H86.7515C86.7135 45.5035 86.69449999999999 45.1805 86.69449999999999 44.6865V42.34C86.69449999999999 41.808 86.704 41.58 86.7325 41.3045C86.457 41.3235 86.191 41.333 85.735 41.333H84.3385C84.0915 41.333 83.77799999999999 41.333 83.569 41.3425C83.9965 41.067 84.234 40.9055 84.595 40.649H86.6375C87.122 40.649 87.502 40.668 87.8155 40.706V39.661C87.5115 39.699 87.2265 39.718 86.7325 39.718H85.75399999999999C86.2575 39.262 86.666 38.8535 87.04599999999999 38.407C87.2645 38.1505 87.407 37.989 87.4735 37.9225L86.533 37.305C86.3335 37.6945 85.9345 38.2265 85.431 38.749V37.932C85.1555 37.97 84.8515 37.989 84.36699999999999 37.989H83.68299999999999V37.8275C83.68299999999999 37.438 83.6925 37.2385 83.74 36.9915H82.581C82.619 37.248 82.63799999999999 37.457 82.63799999999999 37.8275V37.989H81.25099999999999C80.7475 37.989 80.377 37.97 80.13 37.932V38.9295C80.4055 38.900999999999996 80.70949999999999 38.8915 81.213 38.8915H82.63799999999999V39.718H80.472C79.9305 39.718 79.56949999999999 39.699 79.313 39.661V40.706C79.6455 40.668 79.978 40.649 80.453 40.649ZM83.68299999999999 39.718V38.8915H84.462C84.842 38.8915 85.0035 38.900999999999996 85.25999999999999 38.92C84.956 39.224000000000004 84.6995 39.4425 84.348 39.718ZM82.201 42.1975H85.64V42.9005H82.201ZM82.201 43.727H85.64V44.4585H82.201Z" /><path d="M38.804638671875 82.1337890625Q36.241162109375 79.5087890625 36.241162109375 75.755859375Q36.241162109375 73.25390625 37.379345703125 71.2236328125Q38.517529296875 69.193359375 40.711865234375 68.16796875Q38.558544921875 66.732421875 37.912548828125 65.06103515625Q37.266552734375 63.3896484375 37.266552734375 61.93359375Q37.266552734375 58.693359375 39.706982421875 56.40673828125Q42.147412109375 54.1201171875 46.597607421875 54.1201171875Q51.047802734375 54.1201171875 53.488232421875 56.40673828125Q55.928662109375 58.693359375 55.928662109375 61.93359375Q55.928662109375 63.3896484375 55.282666015625 65.06103515625Q54.636669921875 66.732421875 52.483349609375 67.962890625Q54.677685546875 69.193359375 55.785107421875 71.2236328125Q56.892529296875 73.25390625 56.892529296875 75.755859375Q56.892529296875 79.5087890625 54.113720703125 82.14404296875Q51.334912109375 84.779296875 46.351513671875 84.779296875Q41.368115234375 84.779296875 38.804638671875 82.1337890625ZM42.311474609375 75.3662109375Q42.311474609375 77.560546875 43.449658203125 78.7705078125Q44.587841796875 79.98046875 46.597607421875 79.98046875Q48.607373046875 79.98046875 49.745556640625 78.7705078125Q50.883740234375 77.560546875 50.883740234375 75.3662109375Q50.883740234375 73.08984375 49.725048828125 71.91064453125Q48.566357421875 70.7314453125 46.597607421875 70.7314453125Q44.628857421875 70.7314453125 43.470166015625 71.91064453125Q42.311474609375 73.08984375 42.311474609375 75.3662109375ZM43.849560546875 65.2353515625Q44.833935546875 66.2607421875 46.597607421875 66.2607421875Q48.381787109375 66.2607421875 49.355908203125 65.2353515625Q50.330029296875 64.2099609375 50.330029296875 62.58984375Q50.330029296875 60.826171875 49.355908203125 59.83154296875Q48.381787109375 58.8369140625 46.597607421875 58.8369140625Q44.833935546875 58.8369140625 43.839306640625 59.83154296875Q42.844677734375 60.826171875 42.844677734375 62.58984375Q42.844677734375 64.2099609375 43.849560546875 65.2353515625Z M67.902294921875 84.861328125Q64.559521484375 84.861328125 61.893505859375 82.88232421875Q59.227490234375 80.9033203125 58.837841796875 77.109375H64.662060546875Q64.867138671875 78.421875 65.769482421875 79.2421875Q66.671826171875 80.0625 68.168896484375 80.0625Q71.060498046875 80.0625 72.229443359375 76.86328125Q72.865185546875 75.099609375 73.029248046875 71.7158203125Q72.229443359375 72.720703125 71.327099609375 73.25390625Q69.686474609375 74.23828125 67.287060546875 74.23828125Q63.739208984375 74.23828125 60.991162109375 71.78759765625Q58.243115234375 69.3369140625 58.243115234375 64.72265625Q58.243115234375 59.9443359375 61.001416015625 56.98095703125Q63.759716796875 54.017578125 68.168896484375 54.017578125Q74.956982421875 54.017578125 77.479443359375 60.0263671875Q78.914990234375 63.4306640625 78.914990234375 68.98828125Q78.914990234375 74.3818359375 77.540966796875 77.9912109375Q74.915966796875 84.861328125 67.902294921875 84.861328125ZM65.851513671875 59.7392578125Q64.169873046875 61.0517578125 64.169873046875 64.189453125Q64.169873046875 66.8349609375 65.246533203125 68.15771484375Q66.323193359375 69.48046875 68.558544921875 69.48046875Q69.768505859375 69.48046875 70.834912109375 68.783203125Q72.824169921875 67.51171875 72.824169921875 64.3740234375Q72.824169921875 61.8515625 71.644970703125 60.375Q70.465771484375 58.8984375 68.414990234375 58.8984375Q66.917919921875 58.8984375 65.851513671875 59.7392578125Z M87.309033203125 81.15283203125Q87.309033203125 79.8662109375 88.213818359375 78.96142578125Q89.118603515625 78.06494140625 90.396923828125 78.06494140625Q91.675244140625 78.06494140625 92.580029296875 78.9697265625Q93.484814453125 79.87451171875 93.484814453125 81.15283203125Q93.484814453125 82.43115234375 92.580029296875 83.3359375Q91.675244140625 84.24072265625 90.396923828125 84.24072265625Q89.118603515625 84.24072265625 88.213818359375 83.3359375Q87.309033203125 82.43115234375 87.309033203125 81.15283203125ZM80.145458984375 77.29296875Q79.240673828125 76.38818359375 79.240673828125 75.10986328125Q79.240673828125 73.83154296875 80.145458984375 72.9267578125Q81.050244140625 72.02197265625 82.328564453125 72.02197265625Q83.606884765625 72.02197265625 84.511669921875 72.9267578125Q85.416455078125 73.83154296875 85.416455078125 75.10986328125Q85.416455078125 76.38818359375 84.5158203125 77.29296875Q83.615185546875 78.19775390625 82.328564453125 78.19775390625Q81.050244140625 78.19775390625 80.145458984375 77.29296875ZM83.631787109375 84.3154296875H82.345166015625L89.077099609375 71.9638671875H90.338818359375ZM89.467236328125 82.08251953125Q89.849072265625 82.47265625 90.396923828125 82.47265625Q90.944775390625 82.47265625 91.33076171875 82.086669921875Q91.716748046875 81.70068359375 91.716748046875 81.15283203125Q91.716748046875 80.60498046875 91.33076171875 80.218994140625Q90.944775390625 79.8330078125 90.396923828125 79.8330078125Q89.849072265625 79.8330078125 89.4630859375 80.218994140625Q89.077099609375 80.60498046875 89.077099609375 81.15283203125Q89.077099609375 81.70068359375 89.467236328125 82.08251953125ZM81.398876953125 76.03955078125Q81.780712890625 76.4296875 82.328564453125 76.4296875Q82.876416015625 76.4296875 83.26240234375 76.043701171875Q83.648388671875 75.65771484375 83.648388671875 75.10986328125Q83.648388671875 74.56201171875 83.26240234375 74.176025390625Q82.876416015625 73.7900390625 82.328564453125 73.7900390625Q81.780712890625 73.7900390625 81.3947265625 74.176025390625Q81.008740234375 74.56201171875 81.008740234375 75.10986328125Q81.008740234375 75.65771484375 81.398876953125 76.03955078125Z" /><path d="M42.823499999999996 92.775C43.346 93.4685 43.934999999999995 94.865 44.125 95.8625L45.208 95.321C44.9325 94.2285 44.4385 93.2025 43.782999999999994 92.3ZM40.030499999999996 90.685C40.049499999999995 90.59 40.077999999999996 90.4665 40.1065 90.3905L38.8715 90.267C38.8715 90.343 38.8715 90.4 38.8715 90.438C38.8715 90.761 38.805 91.3025 38.6245 92.357C37.522499999999994 92.4995 37.028499999999994 92.547 36.601 92.5565L36.714999999999996 93.6775C36.848 93.6395 36.9525 93.611 37.104499999999994 93.5825L37.968999999999994 93.44C38.272999999999996 93.383 38.272999999999996 93.383 38.415499999999994 93.364C37.968999999999994 95.131 37.2375 96.841 36.506 97.8385L37.608 98.4465C38.653 96.3755 39.0805 95.226 39.546 93.2785C39.7645 93.2595 39.9165 93.25 40.116 93.25C40.8475 93.25 41.065999999999995 93.5065 41.065999999999995 94.3805C41.065999999999995 95.188 40.971 96.0525 40.818999999999996 96.5465C40.6765 97.012 40.524499999999996 97.1925 40.248999999999995 97.1925C39.9165 97.1925 39.375 97.0405 38.861999999999995 96.8125C38.937999999999995 97.183 38.956999999999994 97.373 38.956999999999994 97.62C38.956999999999994 97.715 38.9475 97.8575 38.937999999999995 98.038C39.5745 98.247 39.964 98.323 40.400999999999996 98.323C40.9045 98.323 41.189499999999995 98.209 41.4555 97.8955C41.9115 97.373 42.187 96.0715 42.187 94.4375C42.187 93.57300000000001 42.0635 93.117 41.7405 92.756C41.427 92.4235 40.9615 92.2525 40.3345 92.2525C40.1635 92.2525 40.030499999999996 92.262 39.7455 92.2715C39.773999999999994 92.148 39.773999999999994 92.148 39.802499999999995 91.9865C39.897499999999994 91.4735 39.964 91.084 40.0115 90.8085ZM42.2345 90.7515C42.652499999999996 91.2075 42.918499999999995 91.5875 43.232 92.167L43.897 91.8155C43.574 91.2265 43.317499999999995 90.8655 42.899499999999996 90.419ZM45.027499999999996 91.19800000000001C44.733 90.6565 44.467 90.2955 44.0395 89.85849999999999L43.403 90.191C43.7735 90.5995 44.086999999999996 91.046 44.372 91.5685Z M47.5545 95.644H47.07C46.6425 95.644 46.338499999999996 95.625 46.034499999999994 95.587V96.67C46.348 96.632 46.651999999999994 96.613 47.07 96.613H50.262V97.7815C50.262 98.285 50.242999999999995 98.5415 50.205 98.817H51.364C51.3165 98.5415 51.306999999999995 98.285 51.306999999999995 97.8005V96.613H53.510999999999996C53.9195 96.613 54.251999999999995 96.632 54.546499999999995 96.67V95.587C54.251999999999995 95.625 53.94799999999999 95.644 53.510999999999996 95.644H51.306999999999995V94.105H52.864999999999995C53.2735 94.105 53.529999999999994 94.1145 53.815 94.143V93.136C53.529999999999994 93.174 53.2735 93.1835 52.8365 93.1835H51.306999999999995V91.9485H53.245C53.6725 91.9485 53.9195 91.958 54.214 91.996V90.9605C53.928999999999995 90.9985 53.6915 91.008 53.245 91.008H48.799C48.97 90.6375 49.065 90.438 49.0745 90.4095C49.141 90.267 49.16 90.2385 49.217 90.1245L48.086499999999994 89.8965C48.058 90.0865 47.991499999999995 90.286 47.8585 90.59C47.468999999999994 91.521 46.974999999999994 92.148 46.006 92.9745C46.329 93.288 46.433499999999995 93.4115 46.708999999999996 93.82C47.317 93.269 47.7825 92.718 48.2765 91.9485H50.262V93.1835H48.190999999999995C47.9345 93.1835 47.7255 93.174 47.525999999999996 93.155C47.544999999999995 93.3545 47.5545 93.497 47.5545 93.706ZM48.552 95.644V94.105H50.262V95.644Z M56.968999999999994 92.034C56.968999999999994 91.5305 56.9785 91.2835 57.025999999999996 90.9415H55.9145C55.961999999999996 91.293 55.9715 91.5495 55.9715 92.034V96.005C55.733999999999995 96.0715 55.638999999999996 96.0905 55.354 96.138L55.544 97.2305C55.7435 97.1545 55.791 97.1355 55.9905 97.069C56.741 96.8125 57.406 96.556 57.937999999999995 96.3375V97.6675C57.937999999999995 98.152 57.9285 98.399 57.881 98.76H59.021C58.983 98.4845 58.973499999999994 98.285 58.964 97.9335C59.277499999999996 98.2945 59.4105 98.5035 59.524499999999996 98.836C60.37 98.2755 60.9875 97.6865 61.643 96.8505C62.193999999999996 97.525 62.963499999999996 98.209 63.809 98.779C63.998999999999995 98.304 64.094 98.1045 64.3505 97.715C63.44799999999999 97.164 62.9255 96.7175 62.26049999999999 95.9385C63.0965 94.523 63.5905 92.908 63.827999999999996 90.8465C63.8565 90.6185 63.8565 90.6185 63.875499999999995 90.50450000000001C63.599999999999994 90.533 63.400499999999994 90.5425 63.1155 90.5425H60.189499999999995C59.771499999999996 90.5425 59.5055 90.5235 59.19199999999999 90.4855V91.559C59.343999999999994 91.5305 59.448499999999996 91.521 59.686 91.5115C59.952 93.611 60.294 94.7605 61.025499999999994 95.967C60.730999999999995 96.3755 60.407999999999994 96.727 59.9805 97.1165C59.6005 97.4585 59.4295 97.582 58.964 97.867C58.964 97.791 58.964 97.791 58.964 97.6675V91.1505C58.964 90.6565 58.973499999999994 90.3905 59.021 90.05799999999999H57.881C57.9285 90.4095 57.937999999999995 90.666 57.937999999999995 91.1505V95.359C57.482 95.5395 57.3585 95.5775 56.968999999999994 95.72ZM62.669 91.5115C62.479 92.9365 62.1845 93.915 61.623999999999995 95.0075C61.31999999999999 94.447 61.1205 93.915 60.94 93.155C60.8165 92.6325 60.769 92.357 60.6645 91.5115Z M72.8055 90.7325C72.5395 90.8085 72.454 90.818 71.884 90.818H66.925C66.2695 90.818 65.975 90.799 65.614 90.742V91.9295C66.0035 91.882 66.241 91.8725 66.90599999999999 91.8725H71.8935C71.675 92.3285 71.3805 92.718 70.991 93.079C70.6015 93.4495 70.2405 93.668 69.604 93.953C70.0315 94.276 70.17399999999999 94.4185 70.459 94.8175C70.9055 94.5705 71.219 94.3615 71.59899999999999 94.029C72.1785 93.535 72.7295 92.8225 73.062 92.1195C73.309 91.6255 73.309 91.616 73.442 91.4545ZM68.29299999999999 92.6515C68.331 92.851 68.34049999999999 92.9365 68.34049999999999 93.2215C68.34049999999999 95.017 68.0365 95.834 67.0675 96.6035C66.602 96.974 66.1745 97.183 65.405 97.411C65.785 97.81 65.9085 97.981 66.1555 98.494C67.343 98.0 68.0365 97.5155 68.6065 96.784C69.2525 95.9575 69.509 95.0455 69.547 93.421C69.5565 92.8415 69.5565 92.832 69.585 92.6515Z M75.57 92.832C75.9975 93.668 76.1875 94.1715 76.4345 95.131L77.508 94.789C77.166 93.725 76.976 93.269 76.577 92.5375ZM77.603 92.43299999999999C78.002 93.212 78.28699999999999 93.9435 78.4675 94.6655L79.52199999999999 94.333C79.2845 93.5065 79.104 93.0885 78.6005 92.148ZM80.871 92.338C80.871 92.6325 80.8235 92.965 80.7 93.4305C80.2915 94.9505 79.655 95.9195 78.5435 96.727C77.983 97.1355 77.59349999999999 97.3445 76.9285 97.601C77.3275 97.981 77.44149999999999 98.1235 77.68849999999999 98.5415C79.0945 97.829 79.883 97.2115 80.586 96.252C81.194 95.4255 81.6215 94.3805 81.89699999999999 93.0885C81.954 92.794 81.973 92.7465 82.03 92.604Z M85.8015 91.0935C85.1555 91.0935 84.9275 91.084 84.5855 91.027V92.262C84.899 92.2145 85.0795 92.205 85.7825 92.205H90.30449999999999C89.6965 94.732 87.977 96.499 85.3455 97.316C85.773 97.734 85.9345 97.9525 86.1815 98.4465C89.1835 97.1925 90.865 95.25450000000001 91.6345 92.148C91.701 92.1575 91.758 92.167 91.815 92.167C92.423 92.167 92.917 91.673 92.917 91.065C92.917 90.4665 92.423 89.9725 91.815 89.9725C91.207 89.9725 90.732 90.457 90.7225 91.0745C90.56099999999999 91.084 90.447 91.0935 90.16199999999999 91.0935ZM91.815 90.4475C92.1665 90.4475 92.442 90.723 92.442 91.065C92.442 91.407 92.1665 91.69200000000001 91.815 91.69200000000001C91.473 91.69200000000001 91.19749999999999 91.407 91.19749999999999 91.065C91.19749999999999 90.723 91.473 90.4475 91.815 90.4475Z" /></g>

</svg>