<?xml version="1.0" encoding="UTF-8"?>
<svg xmlns="http://www.w3.org/2000/svg" viewBox="0 0 129.1 130.2" role="img">
<defs>
  <linearGradient id="gold" x1="100%" y1="0%" x2="0%" y2="100%">
    <stop offset="0" stop-color="#D8BE6A"/>
    <stop offset="1" stop-color="#A97924"/>
  </linearGradient>
</defs>
<g fill="url(#gold)">
  <path d="M124.7,72.9c-0.8,0.3-1.6,0.8-2.1,1.6c-0.1,0.2-0.2,0.3-0.3,0.5c0.2-1.6,0.4-3.2,0.6-4.8v0
		c1,0.2,3.1,0.5,4.9-1.7c0.6-1.1,0.8-1.8,0.8-2.5c0-0.7,0-1.2,0.5-1.8c-0.6,0-2.5,0.4-4,1.3c-0.8,0.4-1.5,1-1.9,1.8
		c-0.1,0.1-0.1,0.2-0.2,0.4c0.1-1.6,0-3.2-0.1-4.8c0.5,0,1.2,0,2.1-0.2s1.8-0.8,2.5-2c0.9-2.2-0.1-3,0.7-4.3
		c-0.6,0.1-2.3,0.7-3.8,1.8c-0.7,0.5-1.3,1.2-1.7,2c-0.1,0.1-0.1,0.3-0.1,0.5c-0.2-1.6-0.4-3.2-0.7-4.8c0.9-0.1,3-0.3,4.2-2.8
		c0.6-2.3-0.5-2.9,0.2-4.3c-0.6,0.2-2.2,1-3.5,2.2c-0.8,0.7-1.3,1.6-1.4,2.6c-0.4-1.6-0.8-3.2-1.3-4.8c0,0,0,0,0,0
		c0.9-0.2,2.9-0.6,3.8-3.2c0.4-2.3-0.8-2.7-0.3-4.2c-0.5,0.2-2.1,1.2-3.1,2.5c-0.6,0.8-1.1,1.7-1.1,2.7c-0.4-1-0.8-2-1.2-2.9
		c-0.2-0.6-0.5-1.1-0.8-1.7c0,0,0,0,0,0c0.8-0.3,2.8-1,3.2-3.5c0.1-2.3-1.1-2.6-0.8-4c-0.5,0.3-1.8,1.4-2.7,2.8
		c-0.5,0.8-0.9,1.8-0.8,2.7c-0.8-1.5-1.6-2.9-2.5-4.3c0.8-0.4,2.5-1.3,2.8-3.9c-0.2-2.2-1.4-2.3-1.3-3.8c-0.4,0.3-1.7,1.6-2.3,3.1
		c-0.4,0.9-0.6,1.8-0.4,2.8c-1-1.4-2-2.8-3-4.1c0.7-0.5,2.3-1.5,2.2-4.1c-0.2-1.1-0.6-1.6-0.9-2.1c-0.4-0.4-0.7-0.8-0.7-1.5
		c-0.4,0.4-1.4,1.7-1.9,3.2c-0.3,0.9-0.4,1.8-0.1,2.7c-1.1-1.3-2.3-2.5-3.5-3.6c0.3-0.3,0.8-0.7,1.2-1.4c0.4-0.7,0.7-1.6,0.4-2.8
		c-0.7-2-1.8-1.9-2-3.2c-0.3,0.4-1.2,1.9-1.5,3.4c-0.2,0.8-0.2,1.6,0.1,2.3c0,0.1,0.1,0.2,0.2,0.3c-1.3-1.1-2.6-2.2-3.9-3.2
		c0.6-0.6,1.7-2,1.1-4.3c-0.2-0.5-0.4-0.8-0.7-1.1c-0.2-0.3-0.5-0.4-0.7-0.6c-0.4-0.3-0.8-0.6-1-1.2c-0.3,0.4-0.9,1.9-1,3.4
		c-0.1,0.8,0.1,1.5,0.4,2.2c0.1,0.1,0.1,0.2,0.2,0.3c-1.1-0.8-2.2-1.5-3.3-2.1c0.1-0.9,0-2.3-1.7-3.2c-1.9-0.6-2.6,0.4-3.6-0.2
		c0,0.5,0.3,2,1.1,3c0.7,1,1.9,1.6,3.9,0.8c0.4,0.3,0.9,0.5,1.3,0.8c-0.8-0.1-1.6,0.2-2.2,0.6c-1.3,0.8-2.2,2.1-2.5,2.5
		c1.2-0.3,1.3,0.7,3.2,0.7c1.1-0.2,1.9-0.7,2.5-1.2c0.5-0.5,0.8-1,1-1.3c1.3,0.9,2.6,1.9,3.9,2.9c-0.8-0.2-1.6,0-2.3,0.3
		c-1.4,0.7-2.5,1.9-2.9,2.3c1.2-0.2,1.3,0.8,3.1,1c2.2-0.1,3.4-1.4,3.9-2.1c1.2,1.1,2.3,2.2,3.5,3.4c-0.1,0-0.1,0-0.2-0.1
		c-0.7-0.2-1.5-0.1-2.3,0.1c-1.5,0.5-2.8,1.5-3.2,1.9c1.3,0,1.1,1,3,1.4c2.2,0.2,3.6-1,4.2-1.6c1.1,1.2,2.1,2.4,3,3.7
		c-0.7-0.4-1.6-0.5-2.4-0.3c-1.6,0.3-3,1.3-3.5,1.6c1.4,0.1,1,1.1,2.9,1.8c2.2,0.4,3.8-0.5,4.4-1.2c0.9,1.3,1.7,2.6,2.5,4
		c0,0-0.1-0.1-0.1-0.1c-0.7-0.4-1.5-0.5-2.3-0.4c-1.6,0.1-3.2,0.9-3.7,1.2c0.7,0.1,0.9,0.5,1.2,0.8c0.3,0.4,0.7,0.8,1.5,1.3
		c2.2,0.8,3.9-0.1,4.6-0.6c0.6,1.2,1.2,2.4,1.7,3.6c0.1,0.2,0.2,0.4,0.3,0.6c-0.1,0-0.1-0.1-0.2-0.1c-0.7-0.5-1.5-0.7-2.3-0.8
		c-1.7-0.1-3.3,0.5-3.9,0.7c1.3,0.4,0.7,1.4,2.5,2.5c2.2,1,3.9,0.4,4.8,0c0.5,1.5,1,2.9,1.4,4.4c-0.6-0.7-1.4-1.1-2.3-1.2
		c-1.7-0.3-3.5,0.1-4.1,0.3c0.6,0.3,0.8,0.7,1,1.1c0.2,0.5,0.4,1,1.2,1.7c2.1,1.3,3.9,0.9,4.9,0.5c0.3,1.5,0.6,3,0.9,4.5
		c0-0.1-0.1-0.1-0.1-0.2c-0.5-0.7-1.3-1.1-2.2-1.3c-1.7-0.5-3.5-0.3-4.1-0.2c0.6,0.4,0.7,0.8,0.8,1.3c0.2,0.5,0.3,1.1,1,1.9
		c1.9,1.6,3.9,1.4,4.9,1.2c0,0.3,0.1,0.5,0.1,0.8c0.1,1.2,0.2,2.5,0.2,3.8c0-0.1-0.1-0.2-0.1-0.3c-0.4-0.7-1.2-1.3-2-1.6
		c-1.6-0.7-3.5-0.8-4.1-0.8c1.1,0.9,0.2,1.7,1.4,3.4c1.7,1.8,3.8,1.9,4.8,1.8c-0.1,1.5-0.2,3-0.3,4.5c-0.3-0.9-1-1.7-1.8-2.2
		c-1.6-0.9-3.5-1.3-4.1-1.3c1.1,1.1,0,1.7,1,3.7c0.8,1.1,1.7,1.7,2.5,2.1c0.8,0.3,1.5,0.4,2,0.4c-0.2,1.5-0.5,2.9-0.9,4.4
		c-0.2-1-0.8-1.8-1.6-2.4c-1.4-1.1-3.3-1.7-4-1.8c0.9,1.2-0.2,1.8,0.6,3.8c1.3,2.3,3.3,2.9,4.4,3c-0.4,1.4-0.8,2.8-1.3,4.2
		c0-0.1,0-0.2,0-0.3c-0.2-0.9-0.7-1.7-1.4-2.4c-1.3-1.3-3.2-2.1-3.8-2.3c0.4,0.7,0.3,1.1,0.1,1.6c-0.1,0.6-0.2,1.2,0,2.3
		c1,2.5,3,3.3,4,3.6c-0.6,1.4-1.2,2.7-1.8,4c0.1-1.1-0.4-2.1-1.1-2.9c-1.2-1.5-2.9-2.5-3.5-2.8c0.6,1.4-0.7,1.7-0.3,4
		c0.7,2.6,2.6,3.7,3.7,4.1c-0.3,0.5-0.6,1-0.8,1.5c-0.5,0.8-1,1.5-1.5,2.3c0-0.1,0-0.3,0.1-0.4c0.1-0.9-0.2-1.9-0.8-2.7
		c-1-1.6-2.7-2.9-3.3-3.2c0.2,0.8,0,1.2-0.2,1.7c-0.3,0.5-0.6,1.1-0.6,2.3c0.4,2.8,2.2,4.1,3.2,4.6c-0.9,1.2-1.8,2.3-2.7,3.4
		c0-0.1,0.1-0.2,0.1-0.4c0.2-0.9,0-1.9-0.4-2.8c-0.8-1.8-2.4-3.3-2.9-3.7c0.1,0.8-0.1,1.2-0.4,1.7c-0.3,0.5-0.7,1-0.9,2.2
		c0.1,1.5,0.5,2.6,1,3.4c0.5,0.8,1.1,1.3,1.6,1.7c-1,1-2,2-3.1,3c0.5-1,0.4-2.1,0.1-3.2c-0.6-1.9-2-3.6-2.4-4.1
		c0.1,1.6-1.2,1.4-1.8,3.7c-0.3,2.8,1.1,4.7,2,5.5c-1.1,0.9-2.2,1.7-3.4,2.5c0.1-0.1,0.1-0.2,0.2-0.3c0.4-0.9,0.5-1.9,0.3-2.9
		c-0.3-2-1.5-3.9-1.9-4.4c-0.1,0.8-0.4,1.1-0.9,1.5s-0.9,0.9-1.4,2c-0.7,2.8,0.5,4.9,1.2,5.8c-0.2,0.1-0.3,0.2-0.5,0.3
		c-1.1,0.6-2.1,1.2-3.2,1.7c0.8-0.9,1-2.1,1-3.2c-0.1-2-1-4.1-1.3-4.7c-0.4,1.6-1.6,1-2.8,3.2c-1.1,2.7-0.2,5,0.4,6
		c-0.8,0.3-1.6,0.7-2.4,1c-0.5,0.2-1,0.4-1.5,0.6c0.9-0.8,1.3-2,1.4-3.2c0.2-2.1-0.4-4.3-0.7-5c-0.5,1.6-1.8,0.9-3.4,3
		c-1.4,2.7-0.7,5.1-0.2,6.1c-1.3,0.4-2.7,0.8-4,1.1c1-0.7,1.5-1.9,1.8-3.1c0.4-2.1,0-4.4-0.2-5.1c-0.8,1.6-1.9,0.7-3.6,2.6
		c-1.7,2.5-1.3,5-0.9,6.2c-2.2,0.4-4.4,0.6-6.6,0.8c-1.5,0.1-2.6,0.5-3.6,1c-1-0.5-2.1-0.9-3.6-1c-2.2-0.1-4.4-0.4-6.6-0.8
		c0.4-1.2,0.8-3.6-0.9-6.2c-1.7-1.9-2.8-1-3.6-2.6c-0.2,0.7-0.6,3-0.2,5.1c0.2,1.2,0.8,2.3,1.8,3.1c-1.3-0.3-2.7-0.7-4-1.1
		c0.5-1.1,1.3-3.4-0.2-6.1c-1.6-2.1-2.8-1.4-3.4-3c-0.3,0.7-0.9,2.9-0.7,5c0.1,1.2,0.5,2.4,1.4,3.2c-0.5-0.2-1-0.4-1.5-0.6
		c-0.8-0.3-1.6-0.6-2.4-1c0.6-1,1.5-3.3,0.5-6c-1.2-2.2-2.4-1.6-2.8-3.2c-0.4,0.6-1.3,2.7-1.3,4.7c0,1.1,0.2,2.3,1,3.2
		c-1.1-0.6-2.2-1.1-3.2-1.7c-0.2-0.1-0.3-0.2-0.5-0.3c0.7-0.9,1.9-3,1.2-5.8c-0.5-1.1-1-1.6-1.4-2c-0.4-0.4-0.8-0.7-0.9-1.5
		c-0.4,0.6-1.6,2.4-1.9,4.4c-0.2,1-0.1,2,0.3,2.9c0,0.1,0.1,0.2,0.2,0.3c-1.2-0.8-2.3-1.6-3.4-2.5c0.8-0.8,2.2-2.6,2-5.5
		c-0.6-2.3-1.9-2.1-1.8-3.7c-0.5,0.5-1.9,2.2-2.5,4.1c-0.4,1.1-0.4,2.2,0.1,3.2C25,109,24,108,23,107c0.4-0.3,1.1-0.9,1.6-1.7
		c0.5-0.8,1-1.9,1-3.4c-0.1-1.2-0.5-1.8-0.9-2.2c-0.3-0.5-0.6-0.9-0.4-1.7c-0.5,0.4-2.1,1.9-2.9,3.7c-0.4,0.9-0.6,1.9-0.4,2.8
		c0,0.1,0.1,0.2,0.1,0.4c-1-1.1-1.9-2.2-2.7-3.4c1-0.5,2.8-1.9,3.2-4.6c0-1.2-0.3-1.8-0.6-2.3c-0.3-0.5-0.5-0.9-0.2-1.7
		c-0.6,0.3-2.3,1.6-3.3,3.2c-0.5,0.8-0.8,1.7-0.8,2.7c0,0.1,0,0.3,0,0.4c-0.5-0.8-1-1.5-1.5-2.3c-0.3-0.5-0.6-1-0.9-1.5
		c1-0.4,2.9-1.5,3.7-4.1c0.3-2.3-0.9-2.6-0.3-4c-0.6,0.3-2.4,1.3-3.5,2.8C13.5,90.9,13,92,13.1,93c-0.7-1.3-1.3-2.7-1.8-4
		c1-0.3,3-1.1,4-3.6c0.2-1.1,0.1-1.8,0-2.3c-0.1-0.5-0.2-1,0.1-1.6c-0.6,0.2-2.5,1-3.8,2.3c-0.7,0.7-1.2,1.4-1.4,2.4
		c0,0.1,0,0.2,0,0.3c-0.5-1.4-0.9-2.8-1.3-4.2c1-0.2,3.1-0.7,4.4-3c0.7-2.1-0.3-2.6,0.6-3.8c-0.6,0.1-2.5,0.7-4,1.8
		c-0.8,0.6-1.4,1.4-1.6,2.4c-0.3-1.4-0.6-2.9-0.9-4.4c0.5,0,1.2-0.1,2-0.4c0.8-0.3,1.7-1,2.5-2.1c1-2-0.1-2.6,1-3.7
		c-0.6,0.1-2.6,0.4-4.1,1.3C8,70.8,7.3,71.6,7,72.5c-0.2-1.5-0.3-3-0.3-4.5c1,0.1,3.1,0,4.7-1.8c1.3-1.8,0.4-2.5,1.4-3.4
		c-0.6,0-2.5,0-4.1,0.8c-0.8,0.4-1.5,0.9-2,1.6c-0.1,0.1-0.1,0.2-0.1,0.3c0-1.3,0.1-2.5,0.2-3.8c0-0.3,0.1-0.5,0.1-0.8
		c1,0.2,3,0.4,4.9-1.2c0.7-0.8,0.9-1.4,1-1.9c0.1-0.5,0.2-0.9,0.8-1.3c-0.6-0.1-2.4-0.3-4.1,0.2c-0.8,0.2-1.6,0.7-2.2,1.3
		c0,0.1-0.1,0.1-0.1,0.2c0.2-1.5,0.5-3,0.9-4.5C9.1,54,11,54.4,13,53.1c0.8-0.7,1-1.2,1.2-1.7c0.2-0.5,0.4-0.8,1-1.1
		c-0.6-0.2-2.4-0.6-4.1-0.3c-0.9,0.2-1.8,0.5-2.3,1.2c0.4-1.5,0.9-3,1.4-4.4c0.9,0.5,2.6,1.1,4.8,0c1.7-1.1,1.2-2.1,2.5-2.5
		c-0.5-0.2-2.2-0.8-3.9-0.7c-0.8,0-1.6,0.3-2.3,0.8c-0.1,0-0.1,0.1-0.1,0.1c0.1-0.2,0.2-0.4,0.3-0.6c0.5-1.2,1.1-2.4,1.7-3.6
		c0.8,0.5,2.4,1.4,4.6,0.6c0.9-0.5,1.2-0.9,1.5-1.3s0.5-0.7,1.2-0.8c-0.5-0.3-2.1-1.1-3.7-1.2c-0.8-0.1-1.6,0-2.4,0.4
		c0,0-0.1,0.1-0.1,0.1c0.8-1.3,1.6-2.7,2.5-4c0.7,0.6,2.2,1.6,4.5,1.2c1.9-0.7,1.5-1.8,2.9-1.8c-0.4-0.3-1.9-1.3-3.5-1.6
		c-0.8-0.2-1.7-0.1-2.5,0.3c1-1.3,2-2.5,3-3.7c0.6,0.7,2,1.8,4.2,1.6c1.9-0.4,1.8-1.5,3-1.4c-0.4-0.4-1.7-1.5-3.2-1.9
		c-0.7-0.2-1.5-0.3-2.3-0.1c0,0-0.1,0-0.2,0.1c1.1-1.2,2.3-2.3,3.5-3.4c0.5,0.7,1.7,2,3.9,2.1c1.8-0.3,1.9-1.2,3.1-1
		c-0.3-0.4-1.5-1.6-2.9-2.3c-0.8-0.4-1.6-0.5-2.3-0.3c1.2-1,2.5-2,3.9-2.9c0.2,0.4,0.5,0.9,1,1.3c0.6,0.5,1.3,1,2.5,1.2
		c1.9,0,2-1,3.2-0.7c-0.3-0.4-1.2-1.7-2.5-2.5c-0.7-0.4-1.4-0.7-2.2-0.6c0.4-0.3,0.9-0.5,1.3-0.8c2,0.7,3.1,0.1,3.9-0.9
		c0.7-1.1,1-2.5,1-3c-1,0.6-1.7-0.3-3.6,0.2c-1.7,0.8-1.8,2.3-1.7,3.2c-1.1,0.7-2.2,1.4-3.3,2.1c0.1-0.1,0.1-0.2,0.2-0.3
		c0.3-0.7,0.4-1.4,0.4-2.2c-0.1-1.5-0.8-3-1-3.4c-0.2,0.6-0.5,0.9-1,1.2c-0.2,0.2-0.5,0.3-0.7,0.6c-0.2,0.3-0.5,0.6-0.7,1.1
		c-0.6,2.3,0.5,3.7,1.1,4.3c-1.4,1-2.7,2.1-3.9,3.2c0.1-0.1,0.1-0.2,0.2-0.3c0.3-0.7,0.2-1.5,0.1-2.3c-0.3-1.5-1.1-3-1.5-3.4
		c-0.2,1.4-1.3,1.2-2,3.2c-0.2,1.2,0.1,2.1,0.5,2.8c0.4,0.7,0.9,1.1,1.2,1.4c-1.2,1.2-2.4,2.4-3.5,3.6c0.3-0.9,0.2-1.8-0.1-2.7
		c-0.5-1.5-1.5-2.9-1.9-3.2c0,0.7-0.3,1-0.7,1.5c-0.4,0.4-0.7,1-1,2.1c-0.1,2.5,1.5,3.6,2.2,4.1c-1.1,1.3-2.1,2.7-3,4.1
		c0.2-0.9,0.1-1.9-0.4-2.8c-0.7-1.5-1.9-2.7-2.3-3.1c0.1,1.5-1.1,1.6-1.3,3.8c0.3,2.6,1.9,3.5,2.8,3.9c-0.9,1.4-1.7,2.8-2.5,4.3
		c0.1-1-0.2-1.9-0.8-2.7c-0.9-1.4-2.2-2.5-2.7-2.8c0.3,1.4-0.9,1.8-0.8,4c0.5,2.6,2.4,3.3,3.2,3.5c0,0,0,0,0,0
		c-0.3,0.6-0.5,1.1-0.8,1.7c-0.4,1-0.8,1.9-1.2,2.9c0-1-0.5-1.9-1.1-2.7c-1-1.3-2.6-2.3-3.1-2.5c0.5,1.4-0.8,1.8-0.3,4.2
		c0.9,2.6,2.8,3,3.7,3.2l0,0c-0.5,1.6-1,3.2-1.3,4.8c-0.1-1-0.7-1.9-1.4-2.6c-1.2-1.2-2.9-2-3.5-2.2c0.7,1.4-0.5,2,0.2,4.3
		c1.3,2.5,3.3,2.7,4.2,2.8c-0.3,1.6-0.6,3.2-0.7,4.8c0-0.2-0.1-0.3-0.1-0.5c-0.3-0.8-0.9-1.4-1.7-2c-1.4-1.1-3.2-1.7-3.8-1.8
		c0.8,1.3-0.2,2.1,0.8,4.3c0.7,1.2,1.7,1.8,2.5,2c0.8,0.3,1.6,0.3,2.1,0.2c-0.1,1.6-0.1,3.2-0.1,4.8C6.1,67.5,6,67.4,6,67.3
		c-0.5-0.8-1.2-1.3-1.9-1.8c-1.5-0.9-3.4-1.2-4-1.3c0.5,0.6,0.5,1.2,0.5,1.8c0,0.7,0.1,1.4,0.8,2.5c1.9,2.2,4,1.8,4.9,1.7v0
		c0.1,1.6,0.3,3.2,0.6,4.8c-0.1-0.2-0.2-0.3-0.3-0.5c-0.5-0.7-1.3-1.2-2.1-1.6c-1.7-0.7-3.6-0.8-4.3-0.8c0.6,0.6,0.7,1.1,0.8,1.7
		c0.1,0.6,0.2,1.4,1.1,2.4c2.2,1.9,4.3,1.4,5.2,1.1v0c0.2,0.9,0.4,1.8,0.6,2.7c0.2,0.7,0.3,1.4,0.5,2c-0.1-0.2-0.2-0.3-0.4-0.5
		c-0.6-0.7-1.5-1.1-2.4-1.3c-1.8-0.5-3.8-0.4-4.4-0.3c1.4,1,0.6,2.1,2.4,4c2.5,1.7,4.5,0.9,5.4,0.4v0c0.5,1.5,1,3,1.6,4.5
		c-0.1-0.1-0.2-0.3-0.4-0.4c-0.7-0.6-1.6-0.9-2.6-1.1c-1.9-0.3-3.8,0-4.5,0.2c1.4,0.9,0.9,2.1,2.9,3.7c1.3,0.8,2.5,0.8,3.4,0.7
		c0.9-0.2,1.7-0.6,2.1-0.8c0,0,0,0,0-0.1c0.6,1.4,1.4,2.8,2.1,4.2c-0.1-0.1-0.3-0.2-0.4-0.3c-0.8-0.5-1.8-0.7-2.7-0.8
		c-1.9-0.1-3.9,0.5-4.5,0.8c0.8,0.3,1.1,0.8,1.4,1.4c0.4,0.6,0.8,1.3,2,2c2.8,1.2,4.7-0.2,5.6-0.9c0,0,0,0,0-0.1
		c0.8,1.3,1.7,2.6,2.6,3.9c-0.2-0.1-0.3-0.2-0.5-0.3c-0.9-0.4-1.8-0.5-2.8-0.4c-2,0.1-3.9,1-4.5,1.3c0.9,0.3,1.2,0.7,1.6,1.3
		c0.4,0.6,1,1.2,2.2,1.8c3.1,0.8,4.7-0.8,5.5-1.6c0-0.1,0-0.1,0-0.1c1,1.3,2.1,2.5,3.2,3.6c-0.2-0.1-0.4-0.2-0.6-0.3
		c-0.9-0.3-1.9-0.3-2.9-0.1c-2,0.4-3.8,1.5-4.4,1.9c0.9,0.2,1.3,0.6,1.8,1.1c0.5,0.5,1.1,1.2,2.5,1.5c3.2,0.4,4.7-1.4,5.4-2.3
		c0-0.1,0-0.1-0.1-0.1c0.9,0.9,1.8,1.7,2.8,2.5c0.3,0.2,0.5,0.4,0.8,0.7c-0.2-0.1-0.5-0.2-0.7-0.2c-1-0.2-2,0-3,0.3
		c-2,0.7-3.7,2-4.1,2.5c1.8,0.1,1.9,1.5,4.7,2.1c3.3,0,4.6-2.1,5.1-3.1c0,0,0-0.1-0.1-0.1c1.2,0.9,2.5,1.8,3.9,2.6
		c-0.2-0.1-0.4-0.1-0.7-0.1c-1-0.1-2,0.3-3,0.7c-1.9,0.9-3.4,2.5-3.8,3c1.8-0.1,2.1,1.3,5,1.5c1.6-0.2,2.8-0.9,3.5-1.7
		c0.7-0.8,1.1-1.6,1.3-2.1c0,0-0.1-0.1-0.1-0.1c0.9,0.5,1.9,1,2.8,1.4c0.5,0.2,0.9,0.4,1.4,0.6c-0.2,0-0.5,0-0.7,0
		c-0.5,0.1-1,0.2-1.5,0.4c-0.5,0.2-0.9,0.4-1.4,0.7c-1.7,1.2-3.1,3-3.4,3.6c0.9-0.2,1.5,0.1,2.2,0.4c0.7,0.3,1.6,0.6,3.1,0.4
		c1.7-0.4,2.6-1.2,3.2-2.1c0.6-0.9,0.9-1.7,1-2.3c0,0-0.1-0.1-0.1-0.1c0.2,0.1,0.3,0.1,0.5,0.2c1.3,0.5,2.5,0.9,3.8,1.3
		c-1.3,0-2.5,0.7-3.5,1.5c-1.6,1.4-2.7,3.4-3,4.1c1.7-0.7,2.3,0.8,5.3,0.2c3.2-1.2,3.7-3.8,3.8-4.9c0,0-0.1-0.1-0.1-0.1
		c0.8,0.2,1.7,0.4,2.5,0.6c0.7,0.2,1.3,0.3,2,0.4c-1.3,0.2-2.4,1-3.3,1.9c-1.5,1.6-2.4,3.7-2.6,4.4c1.8-0.9,2.6,0.6,5.5-0.4
		c3.1-1.7,3.2-4.3,3.2-5.5c0,0-0.1,0-0.2-0.1c1.5,0.2,3.1,0.4,4.6,0.4c1.2,0.1,2.2,0.3,3,0.8c-1.1,0.7-1.9,1.6-2.7,2.4
		c-0.5,0.5-1,1-1.5,1.5l0.3,0.5c0.5-0.4,1-0.9,1.5-1.5c0.9-0.9,1.8-1.9,3-2.6c1.2,0.7,2.1,1.6,3,2.6c0.5,0.5,1,1,1.5,1.5l0.3-0.5
		c-0.5-0.4-1-0.9-1.5-1.4c-0.8-0.8-1.6-1.7-2.7-2.4c0.8-0.4,1.8-0.7,3.1-0.8c1.6-0.1,3.1-0.2,4.6-0.4c-0.1,0-0.1,0-0.2,0.1
		c0,1.2,0.1,3.8,3.2,5.5c2.9,0.9,3.8-0.5,5.5,0.4c-0.2-0.7-1.1-2.8-2.6-4.4c-0.9-1-2-1.8-3.3-1.9c0.7-0.1,1.3-0.2,2-0.4
		c0.8-0.2,1.7-0.4,2.5-0.6c0,0-0.1,0.1-0.1,0.1c0.2,1.1,0.6,3.7,3.8,4.9c2.9,0.6,3.5-0.9,5.3-0.2c-0.3-0.7-1.4-2.7-3-4.1
		c-1-0.9-2.2-1.5-3.5-1.5c1.3-0.4,2.6-0.9,3.8-1.3c0.2-0.1,0.3-0.1,0.5-0.2l-0.1,0.1c0.1,0.6,0.4,1.4,1,2.3c0.6,0.9,1.6,1.7,3.2,2.1
		c1.5,0.1,2.4-0.2,3.1-0.4c0.7-0.3,1.3-0.6,2.2-0.4c-0.3-0.6-1.7-2.4-3.4-3.6c-0.4-0.3-0.9-0.5-1.4-0.7c-0.5-0.2-1-0.3-1.5-0.4
		c-0.2,0-0.4,0-0.7,0c0.4-0.2,0.9-0.4,1.4-0.6c0.9-0.5,1.9-0.9,2.8-1.4c0,0-0.1,0.1-0.1,0.1c0.2,0.5,0.6,1.3,1.3,2.1
		c0.7,0.7,1.8,1.5,3.5,1.7c2.9-0.2,3.2-1.6,5-1.5c-0.4-0.6-2-2.1-3.8-3c-0.9-0.5-1.9-0.8-2.9-0.7c-0.2,0-0.4,0.1-0.7,0.1
		c1.3-0.8,2.6-1.7,3.8-2.6c0,0,0,0.1-0.1,0.1c0.6,1,1.8,3,5.1,3.1c2.8-0.6,2.9-2,4.7-2.1c-0.5-0.5-2.2-1.8-4.1-2.5
		c-1-0.3-2-0.5-2.9-0.3c-0.2,0.1-0.4,0.1-0.7,0.2c0.3-0.2,0.6-0.4,0.8-0.7c1-0.8,1.9-1.7,2.8-2.5c0,0-0.1,0.1-0.1,0.1
		c0.7,0.9,2.1,2.7,5.4,2.3c1.4-0.4,1.9-1,2.5-1.5c0.5-0.5,0.9-0.9,1.8-1.1c-0.5-0.4-2.4-1.5-4.3-1.9c-1-0.2-2-0.2-2.9,0.1
		c-0.2,0.1-0.4,0.2-0.7,0.3c1.1-1.2,2.2-2.4,3.2-3.6c0,0,0,0.1-0.1,0.1c0.8,0.8,2.4,2.4,5.5,1.6c1.3-0.6,1.8-1.2,2.2-1.8
		c0.4-0.6,0.8-1,1.6-1.3c-0.6-0.4-2.5-1.2-4.5-1.3c-1-0.1-1.9,0-2.8,0.4c-0.2,0.1-0.3,0.2-0.5,0.3c0.9-1.3,1.8-2.6,2.6-3.9
		c0,0,0,0,0,0.1c0.8,0.6,2.7,2,5.6,0.9c1.1-0.7,1.6-1.4,2-2c0.3-0.6,0.6-1.1,1.4-1.4c-0.6-0.3-2.6-0.9-4.5-0.8
		c-0.9,0.1-1.9,0.2-2.7,0.8c-0.2,0.1-0.3,0.2-0.4,0.3c0.8-1.4,1.5-2.8,2.1-4.2c0,0,0,0,0,0.1c0.4,0.3,1.2,0.7,2.1,0.8
		c0.9,0.2,2.2,0.1,3.4-0.7c2-1.7,1.5-2.9,2.9-3.7c-0.6-0.2-2.6-0.6-4.5-0.2c-0.9,0.2-1.9,0.5-2.6,1.1c-0.2,0.1-0.3,0.3-0.4,0.4
		c0.6-1.5,1.1-3,1.6-4.5v0c0.9,0.4,3,1.3,5.4-0.4c1.8-1.8,1-3,2.4-4c-0.6-0.1-2.6-0.2-4.4,0.3c-0.9,0.2-1.8,0.7-2.4,1.3
		c-0.1,0.2-0.2,0.3-0.4,0.5c0.2-0.7,0.4-1.4,0.5-2c0.2-0.9,0.4-1.8,0.6-2.7v0c0.9,0.3,3,0.9,5.2-1.1c0.8-1,0.9-1.8,1.1-2.4
		c0.1-0.6,0.2-1.2,0.8-1.7C128.3,72.1,126.3,72.2,124.7,72.9L124.7,72.9L124.7,72.9z"/>
  <path d="M55.6,17.9c0.8,1.8,1.5,3.2,0.7,5
		c6.2,0.2,10.8,0.2,17,0c-0.8-1.8,0-3.2,0.8-5c3.4-2.2,4.2-4.6,4.4-6.1c0.2-2-0.6-3.9-2.2-5.1c-1.4-1-3.1-1.2-4.8-0.6
		c0,0-0.1,0-0.1,0c-1.3-0.7-3-0.7-4.4-0.2c-0.1,0-0.2,0.1-0.2,0.1c-0.4-0.2-0.9-0.3-1.3-0.3l0-0.1c0.2-0.6,0.8-1.2,1.4-1.5L67.3,4
		c0.5-0.3,0.5-0.7,0-1L67,2.9c-0.5-0.3-1.2-1-1.4-1.5l-0.4-0.9c-0.2-0.6-0.6-0.6-0.8,0L64,1.3c-0.2,0.6-0.8,1.2-1.4,1.5L62.3,3
		c-0.5,0.3-0.5,0.7,0,1l0.3,0.2c0.5,0.3,1.2,1,1.4,1.5l0,0.1c-0.5,0-0.9,0.1-1.3,0.3c-0.1,0-0.2-0.1-0.2-0.1c-1.4-0.6-3-0.5-4.4,0.2
		c0,0,0,0-0.1,0c-1.6-0.6-3.4-0.4-4.8,0.6c-1.6,1.1-2.4,3.1-2.2,5.1C51.3,13.3,52.2,15.7,55.6,17.9L55.6,17.9L55.6,17.9z M75.6,7.8
		c1.2,0.9,1.8,2.4,1.7,3.9c-0.3,2.2-2.1,4.3-5.1,5.9c-0.8,0-1.6,0-2.3-0.1c0.6-0.8,1.4-1.7,2.4-2.8c1.4-1.6,2-3.8,1.7-5.6
		c-0.2-0.8-0.5-1.5-1-2.1C73.8,7,74.8,7.2,75.6,7.8z M70.9,7.3c0.9,0.5,1.5,1.2,1.7,2.2c0.3,1.4-0.3,3.2-1.4,4.5
		c-1.3,1.5-2.3,2.7-3,3.6c-0.4,0-0.8,0-1.2,0C69.8,10,68.7,7.9,67.9,7C68.9,6.7,70,6.8,70.9,7.3L70.9,7.3L70.9,7.3z M62.9,7.6
		L62.9,7.6L62.9,7.6c0.3-0.4,0.7-0.5,1.3-0.6c0.2,0,0.4,0,0.6,0c0.1,0,0.1,0,0.2,0c0.2,0,0.4,0,0.6,0c0.5,0.1,0.9,0.2,1.2,0.5l0,0.1
		l0.1,0.1c0.5,0.6,1.8,2-1.2,9.8H64C61.1,9.7,62.4,8.2,62.9,7.6L62.9,7.6L62.9,7.6z M57,9.4c0.2-1,0.8-1.7,1.7-2.2s2-0.5,3-0.2
		c-0.8,0.9-1.8,3,0.9,10.5c-0.4,0-0.8,0-1.3,0c-0.7-0.9-1.7-2.1-3-3.6C57.3,12.6,56.7,10.8,57,9.4C57,9.4,57,9.4,57,9.4z M54,7.7
		c0.8-0.6,1.8-0.8,2.8-0.6c-0.5,0.6-0.9,1.2-1,2.1c-0.4,1.8,0.3,4,1.7,5.6c1,1.1,1.7,2,2.4,2.8c-0.8,0-1.5,0-2.3,0.1
		c-3-1.6-4.8-3.7-5.1-5.9C52.2,10.1,52.8,8.6,54,7.7z"/>
</g>

</svg>
